<svg
  width="275"
  height="38"
  viewBox="0 0 275 38"
  fill="none"
  xmlns="http://www.w3.org/2000/svg"
>
  <path
    fillRule="evenodd"
    clipRule="evenodd"
    d="M16.3997 2.35855C17.4196 3.37568 18.254 4.27539 18.254 4.35806C18.254 4.44004 17.4043 5.35504 16.3656 6.39161L14.4773 8.2758L12.5882 6.39161C11.5496 5.35504 10.6999 4.44213 10.6999 4.36223C10.6999 4.21842 14.3321 0.508423 14.4731 0.508423C14.5127 0.508423 15.3798 1.34074 16.3997 2.35855ZM26.1332 2.35855C27.1524 3.37568 27.9868 4.27539 27.9868 4.35806C27.9868 4.44004 27.1371 5.35504 26.0985 6.39161L24.2101 8.2758L22.3218 6.39161C21.2831 5.35504 20.4327 4.44213 20.4327 4.36223C20.4327 4.21842 24.0656 0.508423 24.206 0.508423C24.2463 0.508423 25.1133 1.34074 26.1332 2.35855ZM6.65294 11.7697C7.64019 12.7702 8.47251 13.6602 8.50238 13.747C8.57325 13.9575 5.0293 17.5049 4.74792 17.5049C4.50892 17.5049 0.967056 14.0388 0.967056 13.8047C0.967056 13.6463 4.60619 9.95085 4.76251 9.95085C4.81461 9.95085 5.66569 10.7693 6.65294 11.7697ZM16.3997 11.801C17.4196 12.8188 18.254 13.7164 18.254 13.7963C18.254 14.0312 14.7205 17.5049 14.4815 17.5049C14.2418 17.5049 10.6999 14.0388 10.6999 13.8047C10.6999 13.6608 14.3321 9.95085 14.4731 9.95085C14.5127 9.95085 15.3798 10.7832 16.3997 11.801ZM26.1332 11.801C27.1524 12.8188 27.9868 13.7164 27.9868 13.7963C27.9868 14.0312 24.4533 17.5049 24.2143 17.5049C23.9746 17.5049 20.4327 14.0388 20.4327 13.8047C20.4327 13.6608 24.0656 9.95085 24.206 9.95085C24.2463 9.95085 25.1133 10.7832 26.1332 11.801ZM35.8661 11.801C36.886 12.8188 37.7204 13.7206 37.7204 13.8054C37.7204 13.8908 36.8679 14.8037 35.8264 15.834L33.9325 17.7078L32.0463 15.8271C31.009 14.7926 30.1774 13.8575 30.1996 13.7505C30.2482 13.5066 33.672 9.96822 33.8686 9.9578C33.9471 9.95433 34.8461 10.7832 35.8661 11.801ZM26.1332 21.5338C27.1524 22.5516 27.9868 23.4514 27.9868 23.5333C27.9868 23.616 27.1371 24.531 26.0985 25.5676L24.2101 27.4518L22.3218 25.5676C21.2831 24.531 20.4327 23.6174 20.4327 23.5375C20.4327 23.3944 24.0656 19.6837 24.206 19.6837C24.2463 19.6837 25.1133 20.5167 26.1332 21.5338ZM35.8661 21.5338C36.886 22.5516 37.7204 23.4514 37.7204 23.5333C37.7204 23.616 36.8707 24.531 35.832 25.5676L33.943 27.4518L32.0546 25.5676C31.016 24.531 30.1663 23.6174 30.1663 23.5375C30.1663 23.3944 33.7985 19.6837 33.9388 19.6837C33.9791 19.6837 34.8461 20.5167 35.8661 21.5338ZM26.1332 31.2674C27.1524 32.2845 27.9868 33.1849 27.9868 33.2669C27.9868 33.3489 27.1371 34.2638 26.0985 35.3004L24.2101 37.1846L22.3218 35.3004C21.2831 34.2638 20.4327 33.3509 20.4327 33.271C20.4327 33.1272 24.0656 29.4172 24.206 29.4172C24.2463 29.4172 25.1133 30.2495 26.1332 31.2674Z"
    fill="#85C456"
  />
  <path
    fillRule="evenodd"
    clipRule="evenodd"
    d="M6.70116 21.4183L8.29701 23.0259H9.60941H10.9218L12.5871 21.355C13.5035 20.4359 14.3511 19.6842 14.4713 19.6842C14.7138 19.6842 18.3981 23.2969 18.3981 23.5345C18.3981 23.6165 17.6137 24.4662 16.6549 25.4228L14.9118 27.1611V28.4006V29.64L16.6549 31.379C17.6137 32.335 18.3981 33.1847 18.3981 33.2666C18.3981 33.3493 17.5157 34.297 16.4368 35.3738L14.4762 37.331L12.5149 35.3738C11.4359 34.297 10.5536 33.3514 10.5536 33.2715C10.5536 33.1916 11.3025 32.3739 12.2175 31.4533L13.8808 29.7811L13.9211 28.4367L13.9614 27.0923L12.4419 25.5674L10.9218 24.0424H9.60941H8.29701L6.63099 25.7133C5.7153 26.6317 4.867 27.3835 4.74681 27.3835C4.50781 27.3835 0.82074 23.7728 0.82074 23.538C0.82074 23.192 4.64746 19.5556 4.87742 19.6835C5.00317 19.7529 5.82368 20.5338 6.70116 21.4183Z"
    fill="#FBFBFB"
  />
  <path
    d="M184.86 5.24948H188.964V26.9651H184.86V5.24948Z"
    fill="#85C456"
  />
  <path
    d="M192.642 10.9035H196.657V12.5422C197.572 11.7745 198.399 11.2431 199.137 10.9478C199.885 10.6427 200.648 10.4902 201.425 10.4902C203.02 10.4902 204.373 11.0462 205.485 12.1583C206.42 13.1031 206.887 14.5007 206.887 16.3509V26.9651H202.901V19.9234C202.901 18.0043 202.813 16.7298 202.636 16.0999C202.468 15.4701 202.168 14.9927 201.735 14.668C201.312 14.3333 200.786 14.166 200.156 14.166C199.339 14.166 198.635 14.4416 198.045 14.9927C197.464 15.534 197.06 16.2869 196.834 17.2514C196.716 17.7533 196.657 18.8408 196.657 20.5139V26.9651H192.642V10.9035Z"
    fill="#85C456"
  />
  <path
    d="M220.087 13.1474L217.592 15.6423C216.579 14.6384 215.658 14.1365 214.832 14.1365C214.379 14.1365 214.025 14.2349 213.769 14.4318C213.513 14.6188 213.385 14.855 213.385 15.1404C213.385 15.3569 213.464 15.5586 213.621 15.7456C213.788 15.9228 214.192 16.1688 214.832 16.4837L216.308 17.2219C217.863 17.9895 218.931 18.7719 219.511 19.5691C220.092 20.3663 220.382 21.3012 220.382 22.374C220.382 23.801 219.856 24.9919 218.803 25.9465C217.76 26.9012 216.357 27.3785 214.595 27.3785C212.253 27.3785 210.383 26.4632 208.986 24.6327L211.466 21.9311C211.938 22.4823 212.489 22.93 213.119 23.2745C213.759 23.6091 214.325 23.7764 214.817 23.7764C215.348 23.7764 215.776 23.6485 216.101 23.3926C216.426 23.1367 216.588 22.8415 216.588 22.5069C216.588 21.8868 216.003 21.2816 214.832 20.6911L213.473 20.012C210.875 18.703 209.576 17.0644 209.576 15.0961C209.576 13.8265 210.063 12.7439 211.038 11.8483C212.022 10.9429 213.277 10.4902 214.802 10.4902C215.845 10.4902 216.825 10.7215 217.74 11.184C218.665 11.6367 219.447 12.2912 220.087 13.1474Z"
    fill="#85C456"
  />
  <path
    d="M224.606 4.28992C225.315 4.28992 225.92 4.5458 226.422 5.05757C226.934 5.56933 227.19 6.18936 227.19 6.91764C227.19 7.63609 226.939 8.25119 226.437 8.76296C225.935 9.26488 225.335 9.51585 224.636 9.51585C223.917 9.51585 223.302 9.25996 222.791 8.74819C222.289 8.22659 222.038 7.59672 222.038 6.85859C222.038 6.14999 222.289 5.54473 222.791 5.04281C223.293 4.54088 223.898 4.28992 224.606 4.28992ZM222.584 10.9035H226.629V26.9651H222.584V10.9035Z"
    fill="#85C456"
  />
  <path
    d="M241.615 10.9035H245.63V24.6622C245.63 27.3785 245.084 29.3763 243.992 30.6558C242.525 32.3879 240.316 33.254 237.363 33.254C235.789 33.254 234.465 33.0571 233.392 32.6635C232.319 32.2698 231.414 31.6891 230.676 30.9215C229.938 30.1637 229.391 29.2386 229.037 28.1461H233.481C233.874 28.5988 234.381 28.9384 235.001 29.1647C235.621 29.4009 236.354 29.519 237.201 29.519C238.283 29.519 239.154 29.3517 239.814 29.0171C240.473 28.6825 240.936 28.2495 241.201 27.718C241.477 27.1866 241.615 26.2713 241.615 24.9722C240.906 25.6808 240.163 26.1926 239.386 26.5075C238.608 26.8126 237.727 26.9651 236.743 26.9651C234.588 26.9651 232.767 26.1876 231.281 24.6327C229.795 23.0777 229.052 21.1093 229.052 18.7277C229.052 16.1787 229.839 14.1316 231.414 12.5864C232.841 11.1889 234.544 10.4902 236.522 10.4902C237.447 10.4902 238.318 10.6624 239.135 11.0069C239.961 11.3415 240.788 11.8975 241.615 12.675V10.9035ZM237.437 14.2546C236.167 14.2546 235.119 14.6827 234.293 15.5389C233.466 16.3853 233.053 17.4532 233.053 18.7424C233.053 20.0809 233.476 21.1782 234.322 22.0345C235.168 22.8907 236.231 23.3188 237.511 23.3188C238.761 23.3188 239.789 22.9005 240.596 22.064C241.413 21.2274 241.821 20.1301 241.821 18.7719C241.821 17.4335 241.413 16.346 240.596 15.5094C239.779 14.6729 238.726 14.2546 237.437 14.2546Z"
    fill="#85C456"
  />
  <path
    d="M249.175 4.70327H253.176V12.5274C253.963 11.8483 254.755 11.3415 255.553 11.0069C256.35 10.6624 257.157 10.4902 257.974 10.4902C259.568 10.4902 260.911 11.0413 262.004 12.1436C262.939 13.0982 263.406 14.5007 263.406 16.3509V26.9651H259.435V19.9234C259.435 18.0633 259.347 16.8036 259.169 16.1442C258.992 15.4848 258.687 14.9927 258.254 14.668C257.831 14.3432 257.304 14.1808 256.675 14.1808C255.858 14.1808 255.154 14.4514 254.564 14.9927C253.983 15.534 253.579 16.2722 253.353 17.2071C253.235 17.6894 253.176 18.7916 253.176 20.5139V26.9651H249.175V4.70327Z"
    fill="#85C456"
  />
  <path
    d="M267.261 4.98375H271.277V10.9035H273.668V14.3727H271.277V26.9651H267.261V14.3727H265.195V10.9035H267.261V4.98375Z"
    fill="#85C456"
  />
  <path
    d="M54.4327 5.24948H58.6252L66.9808 26.9651H62.6849L60.9872 22.4921H52.1297L50.3582 26.9651H46.0623L54.4327 5.24948ZM56.5585 11.0069L53.665 18.4619H59.4371L56.5585 11.0069Z"
    fill="white"
  />
  <path
    d="M69.2119 10.9035H73.2273V12.5422C74.1426 11.7745 74.9693 11.2431 75.7074 10.9478C76.4554 10.6427 77.2181 10.4902 77.9956 10.4902C79.59 10.4902 80.9432 11.0462 82.0553 12.1583C82.9903 13.1031 83.4578 14.5007 83.4578 16.3509V26.9651H79.4719V19.9234C79.4719 18.0043 79.3833 16.7298 79.2062 16.0999C79.0389 15.4701 78.7387 14.9927 78.3056 14.668C77.8825 14.3333 77.3559 14.166 76.7261 14.166C75.9092 14.166 75.2055 14.4416 74.615 14.9927C74.0344 15.534 73.6309 16.2869 73.4045 17.2514C73.2864 17.7533 73.2273 18.8408 73.2273 20.5139V26.9651H69.2119V10.9035Z"
    fill="white"
  />
  <path
    d="M98.6947 10.9035H102.71V26.9651H98.6947V25.2674C97.9073 26.0154 97.1151 26.5567 96.3179 26.8913C95.5306 27.2161 94.6744 27.3785 93.7492 27.3785C91.6726 27.3785 89.8765 26.5764 88.3609 24.9722C86.8453 23.3582 86.0875 21.3554 86.0875 18.9639C86.0875 16.4838 86.8207 14.4514 88.2871 12.8669C89.7535 11.2824 91.5349 10.4902 93.6311 10.4902C94.5956 10.4902 95.5011 10.6722 96.3474 11.0364C97.1938 11.4005 97.9762 11.9467 98.6947 12.675V10.9035ZM94.4578 14.2103C93.2079 14.2103 92.1697 14.6532 91.3429 15.539C90.5163 16.4149 90.1029 17.5417 90.1029 18.9196C90.1029 20.3072 90.5212 21.4489 91.3577 22.3445C92.2041 23.2401 93.2424 23.6879 94.4726 23.6879C95.7422 23.6879 96.7952 23.2499 97.6318 22.374C98.4683 21.4882 98.8866 20.3318 98.8866 18.9048C98.8866 17.5073 98.4683 16.3755 97.6318 15.5094C96.7952 14.6434 95.7373 14.2103 94.4578 14.2103Z"
    fill="white"
  />
  <path
    d="M105.812 4.70327H109.842V26.9651H105.812V4.70327Z"
    fill="white"
  />
  <path
    d="M111.173 10.9035H115.292L119.47 20.9863L124.075 10.9035H128.209L118.141 32.8406H113.978L117.285 25.7694L111.173 10.9035Z"
    fill="white"
  />
  <path
    d="M130.44 4.98376H134.456V10.9035H136.847V14.3727H134.456V26.9651H130.44V14.3727H128.373V10.9035H130.44V4.98376Z"
    fill="white"
  />
  <path
    d="M140.053 4.28992C140.761 4.28992 141.366 4.5458 141.868 5.05757C142.38 5.56933 142.636 6.18936 142.636 6.91764C142.636 7.63609 142.385 8.25119 141.883 8.76296C141.381 9.26488 140.781 9.51585 140.082 9.51585C139.364 9.51585 138.748 9.25996 138.237 8.7482C137.735 8.22659 137.484 7.59672 137.484 6.85859C137.484 6.14999 137.735 5.54473 138.237 5.04281C138.739 4.54088 139.344 4.28992 140.053 4.28992ZM138.03 10.9035H142.075V26.9651H138.03V10.9035Z"
    fill="white"
  />
  <path
    d="M160.914 14.1513L157.563 15.9966C156.933 15.3372 156.308 14.8796 155.688 14.6237C155.078 14.3678 154.359 14.2399 153.533 14.2399C152.027 14.2399 150.807 14.6926 149.872 15.598C148.946 16.4936 148.484 17.6451 148.484 19.0524C148.484 20.4204 148.932 21.5375 149.827 22.4035C150.723 23.2696 151.899 23.7026 153.356 23.7026C155.157 23.7026 156.559 23.0875 157.563 21.8573L160.737 24.0274C159.015 26.2615 156.584 27.3785 153.444 27.3785C150.62 27.3785 148.405 26.5419 146.801 24.8689C145.207 23.1958 144.409 21.2373 144.409 18.9934C144.409 17.4384 144.798 16.0064 145.576 14.6975C146.353 13.3885 147.436 12.3601 148.823 11.6121C150.221 10.8642 151.781 10.4902 153.503 10.4902C155.098 10.4902 156.529 10.81 157.799 11.4497C159.069 12.0796 160.107 12.9801 160.914 14.1513Z"
    fill="white"
  />
  <path
    d="M173.848 13.1474L171.353 15.6423C170.339 14.6384 169.419 14.1365 168.592 14.1365C168.14 14.1365 167.785 14.2349 167.53 14.4318C167.274 14.6188 167.146 14.855 167.146 15.1404C167.146 15.3569 167.224 15.5586 167.382 15.7456C167.549 15.9228 167.953 16.1688 168.592 16.4838L170.069 17.2219C171.624 17.9895 172.692 18.7719 173.272 19.5691C173.853 20.3663 174.143 21.3013 174.143 22.374C174.143 23.801 173.617 24.9919 172.564 25.9465C171.52 26.9012 170.118 27.3785 168.356 27.3785C166.014 27.3785 164.144 26.4632 162.747 24.6327L165.227 21.9311C165.699 22.4823 166.25 22.93 166.88 23.2745C167.52 23.6091 168.086 23.7764 168.578 23.7764C169.109 23.7764 169.537 23.6485 169.862 23.3926C170.187 23.1367 170.349 22.8415 170.349 22.5069C170.349 21.8868 169.764 21.2816 168.592 20.6911L167.234 20.012C164.636 18.7031 163.337 17.0644 163.337 15.0961C163.337 13.8265 163.824 12.7439 164.799 11.8483C165.783 10.9429 167.037 10.4902 168.563 10.4902C169.606 10.4902 170.585 10.7215 171.501 11.184C172.426 11.6367 173.208 12.2912 173.848 13.1474Z"
    fill="white"
  />
</svg>
