<svg width="309" height="46" viewBox="0 0 309 46" fill="none" xmlns="http://www.w3.org/2000/svg">
  <path
    d="M60.9525 31.4258V24.0319H68.3027C70.8628 24.0319 72.4321 25.1059 72.4321 27.5016C72.4321 29.7323 70.8628 31.4258 68.2201 31.4258H60.9525ZM67.8486 13.4159C70.5326 13.4159 71.6476 14.2834 71.6476 16.39C71.6476 18.3315 70.45 19.3642 68.1788 19.3642H60.9525V13.4159H67.8486ZM67.766 36.0935C74.6618 36.0935 78.0067 32.9128 78.0067 27.9148C78.0067 23.9906 76.1485 22.1317 73.836 21.2643C75.7355 20.4795 77.1808 18.4967 77.1808 16.1422C77.1808 11.5571 74.2903 8.66565 68.922 8.66565H55.4193V36.0935H67.766Z"
    fill="white" />
  <path
    d="M91.5455 28.3701C91.5042 30.766 89.4395 32.7899 86.6729 32.7899C84.9799 32.7899 84.0714 32.0464 84.0714 30.5181C84.0714 28.7832 85.0625 27.9158 88.1182 27.3374C90.1002 26.9657 91.0499 26.6765 91.5868 26.1396L91.5455 28.3701ZM96.9549 36.0945V23.2481C96.9549 18.1259 94.725 15.2345 88.2833 15.2345C81.7589 15.2345 79.4466 18.1672 79.364 22.3807H84.3606C84.6082 20.5631 85.5992 19.3652 88.0356 19.3652C90.1415 19.3652 91.4629 20.15 91.4629 21.4719C91.4629 22.8763 90.7197 23.4133 88.0356 23.785C82.6263 24.5285 78.7034 25.1895 78.7034 31.055C78.7034 34.3597 80.8505 36.6315 85.4753 36.6315C88.2007 36.6315 90.348 35.6814 91.6281 34.277C91.6694 34.8966 91.7933 35.5988 91.9584 36.0945H96.9549Z"
    fill="white" />
  <path
    d="M117.734 36.0945V22.0088C117.734 17.589 114.885 15.2345 111.004 15.2345C107.742 15.2345 105.677 16.4737 104.438 18.7456V15.7715H99.3179V36.0945H104.686V24.446C104.686 21.348 106.049 19.7783 108.857 19.7783C111.417 19.7783 112.325 20.6458 112.325 23.785V36.0945H117.734Z"
    fill="white" />
  <path
    d="M138.581 36.0931L131.933 23.2467L138.747 15.7701H132.181L125.491 23.4945V8.33484H120.082V36.0931H125.491V29.6492L128.093 26.9643L132.553 36.0931H138.581Z"
    fill="white" />
  <path d="M145.398 36.0931V8.33484H140.03V36.0931H145.398Z" fill="white" />
  <path
    d="M152.749 23.9503C152.956 21.1414 154.731 19.4891 156.879 19.4891C158.985 19.4891 160.967 20.9348 161.049 23.9503H152.749ZM166.582 27.3374C166.582 19.2826 163.279 15.2345 157.044 15.2345C150.808 15.2345 147.216 19.2826 147.216 25.5612C147.216 32.9138 150.602 36.6315 157.374 36.6315C161.71 36.6315 165.055 34.2771 166.293 30.105H160.76C160.389 31.5095 158.861 32.3769 157.126 32.3769C154.484 32.3769 152.749 30.3942 152.584 27.3374H166.582Z"
    fill="white" />
  <path
    d="M185.819 21.9262C185.53 17.5477 182.888 15.2345 177.023 15.2345C170.83 15.2345 168.476 17.8369 168.476 21.2653C168.476 23.0828 169.138 24.6524 171.036 25.8504C172.482 26.7591 174.381 27.3374 177.809 28.1635C179.543 28.5767 181.071 29.0311 181.071 30.4768C181.071 32.0051 179.377 32.5835 177.478 32.5835C174.876 32.5835 173.266 31.4682 173.266 29.568H167.733C167.816 33.6986 171.285 36.6315 177.52 36.6315C183.301 36.6315 186.398 34.1118 186.398 29.8986C186.398 27.2548 185.2 25.8504 183.052 24.983C181.484 24.3634 179.295 23.909 176.983 23.2481C174.794 22.6284 173.679 22.1328 173.679 20.9348C173.679 19.737 174.836 19.2412 176.859 19.2412C179.295 19.2412 180.369 19.9434 180.658 21.9262H185.819Z"
    fill="white" />
  <path
    d="M205.311 21.9262C205.022 17.5477 202.379 15.2345 196.517 15.2345C190.322 15.2345 187.968 17.8369 187.968 21.2653C187.968 23.0828 188.629 24.6524 190.528 25.8504C191.974 26.7591 193.873 27.3374 197.301 28.1635C199.035 28.5767 200.563 29.0311 200.563 30.4768C200.563 32.0051 198.871 32.5835 196.97 32.5835C194.37 32.5835 192.758 31.4682 192.758 29.568H187.226C187.308 33.6986 190.777 36.6315 197.012 36.6315C202.793 36.6315 205.89 34.1118 205.89 29.8986C205.89 27.2548 204.693 25.8504 202.546 24.983C200.976 24.3634 198.787 23.909 196.475 23.2481C194.286 22.6284 193.171 22.1328 193.171 20.9348C193.171 19.737 194.328 19.2412 196.351 19.2412C198.787 19.2412 199.861 19.9434 200.15 21.9262H205.311Z"
    fill="white" />
  <path d="M220.509 36.0935V13.4572H228.808V8.66565H206.511V13.4572H214.769V36.0935H220.509Z"
    fill="white" />
  <path
    d="M235.786 36.0931V15.7701H230.419V36.0931H235.786ZM235.786 13.333V8.33484H230.419V13.333H235.786Z"
    fill="white" />
  <path
    d="M267.293 36.0945V22.0088C267.293 18.2086 264.444 15.2345 260.355 15.2345C257.795 15.2345 255.979 16.2259 254.864 18.4564C253.294 16.102 251.973 15.2345 249.206 15.2345C246.523 15.2345 244.623 16.0606 243.261 18.7456V15.7715H238.223V36.0945H243.59V23.7437C243.59 21.1001 244.705 19.7783 246.852 19.7783C249.206 19.7783 250.074 20.6045 250.074 23.8676V36.0945H255.441V23.9503C255.441 21.4719 256.887 19.6131 258.87 19.6131C260.768 19.6131 262.049 21.348 262.049 23.785V36.0945H267.293Z"
    fill="white" />
  <path
    d="M274.441 23.9503C274.647 21.1414 276.424 19.4891 278.571 19.4891C280.676 19.4891 282.659 20.9348 282.741 23.9503H274.441ZM288.275 27.3374C288.275 19.2826 284.971 15.2345 278.735 15.2345C272.5 15.2345 268.907 19.2826 268.907 25.5612C268.907 32.9138 272.294 36.6315 279.066 36.6315C283.403 36.6315 286.747 34.2771 287.986 30.105H282.453C282.08 31.5095 280.552 32.3769 278.818 32.3769C276.175 32.3769 274.441 30.3942 274.276 27.3374H288.275Z"
    fill="white" />
  <path
    d="M307.509 21.9262C307.22 17.5477 304.578 15.2345 298.715 15.2345C292.52 15.2345 290.166 17.8369 290.166 21.2653C290.166 23.0828 290.828 24.6524 292.727 25.8504C294.172 26.7591 296.071 27.3374 299.499 28.1635C301.234 28.5767 302.761 29.0311 302.761 30.4768C302.761 32.0051 301.067 32.5835 299.168 32.5835C296.568 32.5835 294.956 31.4682 294.956 29.568H289.424C289.507 33.6986 292.975 36.6315 299.211 36.6315C304.991 36.6315 308.088 34.1118 308.088 29.8986C308.088 27.2548 306.89 25.8504 304.742 24.983C303.174 24.3634 300.985 23.909 298.673 23.2481C296.484 22.6284 295.369 22.1328 295.369 20.9348C295.369 19.737 296.526 19.2412 298.549 19.2412C300.985 19.2412 302.06 19.9434 302.348 21.9262H307.509Z"
    fill="white" />
  <path fillRule="evenodd" clipRule="evenodd"
    d="M23.6999 14.7092L29.8642 18.7623L25.5723 21.758L22.0802 19.4783L6.63493 29.6304L22.0802 39.7793L37.5277 29.6304L32.6535 26.4276L37.0732 23.4974L42.6682 27.1451C44.0329 28.0347 44.4183 29.8627 43.5289 31.2279C43.307 31.5685 43.017 31.8597 42.6772 32.0831L23.6997 44.5526C22.7165 45.1984 21.4439 45.1984 20.4609 44.5524L1.50642 32.0965C0.144953 31.2018 -0.233685 29.3724 0.660708 28.0106C0.881896 27.6737 1.16971 27.3858 1.50642 27.1645L20.4604 14.7088C21.4436 14.0627 22.7167 14.0628 23.6999 14.7092ZM23.738 0.619033L42.6926 13.075C44.0541 13.9697 44.4326 15.7991 43.5384 17.161C43.3172 17.4979 43.0293 17.7857 42.6926 18.0069L23.7386 30.4627C22.7554 31.1088 21.4822 31.1087 20.4991 30.4623L14.3347 26.4093L18.6267 23.4134L22.1187 25.6933L37.5641 15.541L22.1187 5.39212L6.67136 15.541L11.5457 18.7438L7.12587 21.674L1.53074 18.0266C0.166007 17.1369 -0.219335 15.3089 0.670054 13.9437C0.892029 13.6029 1.18203 13.3118 1.52183 13.0885L20.4994 0.618941C21.4824 -0.0269854 22.755 -0.0269486 23.738 0.619033Z"
    fill="#FFBF1B" />
</svg>
