<svg xmlns="http://www.w3.org/2000/svg" width="186" height="58" viewBox="0 0 186 58" fill="none">
  <g clip-path="url(#clip0_1874_9432)">
    <path fillRule="evenodd" clipRule="evenodd"
      d="M14.9753 57.9592H19.2832V34.9453H14.9753V57.9592ZM30.7668 57.614H34.6252V43.0937L50.8661 57.9592V35.2905H47.0185V49.5627L30.7668 34.9453V57.614ZM59.6743 52.0403C61.7743 53.6765 64.2951 54.6222 66.9974 54.6222C69.6296 54.6222 71.4761 53.716 71.4761 51.7149C71.4761 49.9709 70.2985 49.2876 68.2362 48.5235L64.8974 47.3638C61.8193 46.2707 59.4784 44.6741 59.4784 41.0045C59.4784 37.0795 63.0221 34.9453 67.2599 34.9453C69.8562 34.9453 72.2223 35.598 74.0706 36.7541V40.6467C72.1486 39.2263 70.045 38.2482 67.3426 38.2482C65.0161 38.2482 63.2774 39.1166 63.2774 40.9271C63.2774 42.5633 64.3688 43.2177 66.2908 43.8758L70.0108 45.1811C73.6157 46.4487 75.2698 48.4138 75.2698 51.6466C75.2698 55.7135 71.6919 57.9592 66.9974 57.9592C63.9121 57.9592 61.2889 57.0962 59.6743 56.0066V52.0403ZM85.3204 57.9592H89.6265V34.9453H85.3204V57.9592ZM109.828 54.4765C114.683 54.4765 117.277 51.3625 117.277 46.4469C117.277 41.4953 114.681 38.392 109.828 38.392H105.028V54.4765H109.828ZM101.108 34.9453H109.972C116.795 34.9453 121.208 39.4402 121.208 46.4469C121.208 53.4589 116.795 57.9592 109.972 57.9592H101.108V34.9453ZM142.744 34.9453V38.392H132.321V43.9297H141.668V47.3369H132.319V54.4765H142.744V57.9592H128.387V34.9453H142.744ZM158.03 45.3663H162.304C164.833 45.3663 166.259 43.9783 166.259 41.8441C166.259 39.7099 164.833 38.3201 162.304 38.3201H158.03V45.3663ZM158.03 48.6206V57.9592H154.227V34.9453H162.375C167.021 34.9453 170.028 37.3384 170.028 41.8441C170.028 45.6971 168.359 47.9104 164.804 48.4786L172.89 57.9592H168.564L160.736 48.6224H158.032L158.03 48.6206ZM13.4704 12.2731C15.1551 11.6564 16.4676 9.8063 16.4676 7.26219C16.4676 3.02261 13.4704 0.825505 8.67527 0.825505H0.620422V24.492H9.42322C14.2184 24.492 17.2156 22.1403 17.2156 17.7083C17.2156 15.202 15.6424 13.0049 13.4704 12.2731ZM4.40332 10.77V4.29556H8.63931C11.3003 4.29556 12.7225 5.25927 12.7225 7.49413C12.7225 9.72899 11.2985 10.77 8.63931 10.77H4.40332ZM4.40332 14.0854H9.34771C11.9727 14.0854 13.3949 15.3944 13.3949 17.5537C13.3949 19.6735 11.9709 21.0238 9.34951 21.0238H4.40512V14.0836L4.40332 14.0854ZM34.7906 24.8768C40.2977 24.8768 44.0069 21.5613 44.0069 15.0869V0.825505H40.1108V14.623C40.1108 19.1719 38.2373 21.2934 34.7906 21.2934C31.3439 21.2934 29.4722 19.1719 29.4722 14.623V0.825505H25.5761V15.0473C25.5761 21.5613 29.3212 24.8768 34.7906 24.8768ZM53.1801 22.7947C54.7911 23.9526 57.4143 24.8768 60.4852 24.8768C65.1689 24.8768 68.727 22.4855 68.727 18.1704C68.727 14.7399 67.0801 12.6579 63.4824 11.3094L59.775 9.92137C57.8638 9.22916 56.7778 8.53515 56.7778 6.80012C56.7778 4.87271 58.5003 3.94856 60.8232 3.94856C63.5202 3.94856 65.6184 4.98778 67.5296 6.49267V2.36635C65.6939 1.13475 63.3332 0.440742 60.7477 0.440742C56.5153 0.440742 52.9931 2.71516 52.9931 6.87743C52.9931 10.77 55.3161 12.4655 58.387 13.6216L61.7222 14.855C63.7827 15.664 64.9441 16.3976 64.9441 18.2477C64.9441 20.3675 63.1084 21.3312 60.4852 21.3312C57.7883 21.3312 55.2783 20.3279 53.1801 18.5947V22.7947ZM82.6486 0.825505H78.7543V24.4902H82.6486V0.825505ZM93.7636 24.4615H97.5177V9.06554L113.318 24.8282V0.789546H109.575V15.923L93.7636 0.424561V24.4615ZM137.664 0.830899V4.37467H127.549V10.0706H136.62V13.5748H127.549V20.9159H137.664V24.4974H123.73V0.830899H137.664ZM146.735 22.7786C148.346 23.9364 150.967 24.8606 154.04 24.8606C158.722 24.8606 162.282 22.4711 162.282 18.1542C162.282 14.7237 160.633 12.6435 157.037 11.2932L153.328 9.90699C151.417 9.21298 150.331 8.51896 150.331 6.78394C150.331 4.85652 152.053 3.93237 154.376 3.93237C157.073 3.93237 159.171 4.97339 161.083 6.47648V2.35197C159.247 1.11857 156.886 0.424561 154.301 0.424561C150.068 0.424561 146.546 2.69898 146.546 6.86125C146.546 10.7538 148.869 12.4493 151.94 13.6054L155.275 14.8388C157.336 15.6479 158.497 16.3814 158.497 18.2315C158.497 20.3513 156.663 21.315 154.038 21.315C151.341 21.315 148.831 20.3136 146.735 18.5785V22.7786ZM170.263 22.7786C171.874 23.9364 174.497 24.8606 177.568 24.8606C182.252 24.8606 185.81 22.4711 185.81 18.1542C185.81 14.7237 184.161 12.6435 180.565 11.2932L176.856 9.90699C174.947 9.21298 173.859 8.51896 173.859 6.78394C173.859 4.85652 175.583 3.93237 177.904 3.93237C180.601 3.93237 182.701 4.97339 184.611 6.47648V2.35197C182.777 1.11857 180.416 0.424561 177.831 0.424561C173.596 0.424561 170.076 2.69898 170.076 6.86125C170.076 10.7538 172.399 12.4493 175.47 13.6054L178.805 14.8388C180.866 15.6479 182.027 16.3814 182.027 18.2315C182.027 20.3513 180.191 21.315 177.568 21.315C174.871 21.315 172.361 20.3136 170.263 18.5785V22.7786Z"
      fill="white" />
  </g>
  <defs>
    <clipPath id="clip0_1874_9432">
      <rect width="185.19" height="57.5346" fill="white" transform="translate(0.624268 0.424927)" />
    </clipPath>
  </defs>
</svg>
