<svg xmlns="http://www.w3.org/2000/svg" width="209" height="38" viewBox="0 0 209 38" fill="none">
  <g clip-path="url(#clip0_1874_9516)">
    <path
      d="M21.7018 36.545C19.7317 35.7829 18.0023 34.5056 16.6945 32.8467C15.3867 31.1878 14.5484 29.2082 14.2671 27.1145H27.647V13.3443H37.7125V25.5504C37.7117 27.4621 37.2457 29.3449 36.3549 31.0363C35.4641 32.7278 34.1751 34.1771 32.5992 35.2593C31.0233 36.3415 29.2078 37.024 27.3093 37.248C25.4108 37.472 23.4863 37.2307 21.7018 36.545ZM12.6672 24.066C11.1207 24.0657 9.58938 23.7607 8.1607 23.1685C6.73202 22.5764 5.43396 21.7086 4.34065 20.6148C3.24735 19.5209 2.38021 18.2225 1.78874 16.7935C1.19726 15.3645 0.893021 13.8331 0.893433 12.2865C0.893103 10.7401 1.19738 9.20864 1.78889 7.77975C2.3804 6.35085 3.24758 5.05243 4.34088 3.95866C5.43418 2.8649 6.73221 1.99722 8.16085 1.4051C9.5895 0.812979 11.1207 0.50802 12.6672 0.50769H24.8689V24.0666L12.6672 24.066Z"
      fill="url(#paint0_linear_1874_9516)" />
    <path
      d="M108.639 32.4806C108.389 32.3808 108.167 32.2228 107.99 32.0197C107.813 31.8167 107.687 31.5744 107.623 31.3131C107.645 31.0816 107.714 30.8571 107.826 30.6535C107.938 30.4499 108.091 30.2714 108.275 30.1291C108.642 29.8974 109.07 29.7813 109.504 29.796C110.344 29.856 111.142 30.1861 111.779 30.7371L112.538 31.3444C112.976 30.9305 113.295 30.4069 113.463 29.828C113.651 29.1155 113.738 28.3801 113.721 27.6434C113.721 27.2791 113.716 26.8338 113.706 26.3076C113.695 25.7815 113.68 25.0938 113.66 24.2447C113.64 23.3952 113.619 22.313 113.598 20.9979C113.576 19.6829 113.551 18.0548 113.521 16.1136C113.491 14.1712 113.465 11.845 113.446 9.13505L110.353 8.80002V7.55588H119.243V8.80002L116.452 9.13317C116.432 10.4076 116.417 11.6971 116.407 13.0017C116.397 14.3063 116.392 15.6161 116.391 16.9311V21.6636C116.391 23.2012 116.366 24.4855 116.316 25.5165C116.284 26.3822 116.188 27.2444 116.028 28.0957C115.915 28.698 115.716 29.2807 115.436 29.8255C115.163 30.3167 114.82 30.7661 114.42 31.16C113.894 31.6784 113.27 32.086 112.584 32.3583C111.846 32.655 111.057 32.8042 110.262 32.7975C109.706 32.8 109.154 32.6923 108.639 32.4806ZM50.887 27.2657C49.3004 26.4969 47.976 25.2769 47.0799 23.7585C46.079 21.9626 45.5906 19.9262 45.6683 17.8716C45.6304 16.2714 45.9247 14.6807 46.5328 13.2C47.0667 11.9441 47.8756 10.824 48.9 9.92244C49.9057 9.05013 51.077 8.38969 52.3438 7.98063C53.6564 7.5528 55.0289 7.33761 56.4094 7.34319C57.4728 7.33151 58.5332 7.45805 59.564 7.71963C60.5386 7.98292 61.4768 8.36605 62.3571 8.86025L62.4782 13.5658H60.1713L59.2929 9.59117C58.6153 9.24791 57.8661 9.0697 57.1064 9.07105C56.0418 9.06889 55.0009 9.38575 54.1181 9.98079C53.1098 10.6974 52.3343 11.6944 51.8877 12.848C51.267 14.4581 50.9782 16.1772 51.0388 17.9017C50.9783 19.6124 51.2566 21.3182 51.8576 22.9209C52.2886 24.0585 53.0427 25.0453 54.0271 25.7599C54.8975 26.3574 55.9296 26.6748 56.9853 26.6697C57.4145 26.6693 57.8422 26.6186 58.2596 26.5185C58.6956 26.4133 59.1219 26.2712 59.5338 26.0937L60.3827 22.2101H62.6897L62.5686 26.8823C61.6794 27.3595 60.7376 27.7314 59.7622 27.9903C58.599 28.2959 57.3999 28.4437 56.1973 28.4295C54.3614 28.4542 52.5443 28.056 50.887 27.2657ZM67.9987 27.3284C66.8604 26.686 65.9331 25.727 65.3291 24.5679C64.6811 23.2963 64.3578 21.884 64.388 20.4571C64.3534 19.0349 64.7044 17.6298 65.4038 16.3909C66.0653 15.2549 67.0255 14.3218 68.1801 13.6931C69.3799 13.0388 70.7279 12.7044 72.0944 12.7219C73.4522 12.7032 74.7928 13.0269 75.9925 13.663C77.1485 14.2837 78.1096 15.2131 78.7687 16.3477C79.4771 17.597 79.8331 19.0151 79.7989 20.4509C79.8324 21.8831 79.5089 23.3012 78.8578 24.5773C78.2504 25.7301 77.3235 26.6833 76.1882 27.3228C74.9333 28.0054 73.5207 28.3456 72.0925 28.3091C70.665 28.3452 69.2531 28.0051 67.9987 27.3228V27.3284ZM70.1539 15.8144C69.7289 16.8052 69.5164 18.3829 69.5164 20.5475C69.4328 22.142 69.649 23.7381 70.1539 25.253C70.2783 25.6746 70.5334 26.0457 70.8824 26.313C71.2314 26.5802 71.6562 26.7297 72.0957 26.7399C72.9447 26.7399 73.582 26.2443 74.0074 25.253C74.5115 23.738 74.7275 22.142 74.6442 20.5475C74.7282 18.9439 74.5123 17.3387 74.0074 15.8144C73.582 14.8235 72.9447 14.3278 72.0957 14.3274C71.6568 14.3371 71.2324 14.4857 70.8833 14.7519C70.5343 15.0181 70.2787 15.3881 70.1532 15.8087L70.1539 15.8144ZM187.494 27.2958C187.085 26.9502 186.764 26.5133 186.556 26.0206C186.348 25.5278 186.258 24.993 186.295 24.4593C186.292 23.8873 186.432 23.3236 186.705 22.8205C187.079 22.2118 187.594 21.7018 188.206 21.3336C189.188 20.728 190.236 20.2393 191.331 19.8774C191.796 19.7164 192.332 19.5445 192.939 19.3617C193.546 19.1789 194.153 19.0175 194.759 18.8773V18.115C194.759 16.6386 194.536 15.6573 194.091 15.1713C193.798 14.9043 193.452 14.7016 193.076 14.5762C192.7 14.4507 192.301 14.4053 191.907 14.4429C191.684 14.4429 191.437 14.4535 191.164 14.473C190.862 14.4982 190.562 14.549 190.269 14.6248L189.692 16.5974C189.409 17.5673 188.883 18.0527 188.115 18.0536C187.938 18.0741 187.758 18.0575 187.588 18.0047C187.418 17.9518 187.26 17.864 187.126 17.7468C186.992 17.6296 186.884 17.4856 186.808 17.324C186.733 17.1625 186.692 16.987 186.689 16.8088C186.827 16.2406 187.076 15.7054 187.423 15.2341C187.769 14.7629 188.205 14.365 188.706 14.0633C189.881 13.3551 191.235 13.0021 192.606 13.0469C194.203 13.0469 195.386 13.4463 196.155 14.2452C196.925 15.0441 197.309 16.4035 197.308 18.3233V24.7856C197.267 25.2658 197.373 25.747 197.612 26.1659C197.699 26.2939 197.817 26.3983 197.955 26.4698C198.093 26.5413 198.246 26.5776 198.401 26.5755C198.636 26.5831 198.869 26.5197 199.068 26.3936C199.264 26.2594 199.438 26.0956 199.584 25.908L200.191 26.5755C199.906 27.0828 199.493 27.5064 198.993 27.804C198.548 28.0393 198.052 28.1594 197.549 28.1535C196.885 28.1756 196.236 27.9484 195.73 27.5166C195.236 27.0753 194.914 26.4732 194.821 25.817C194.153 26.4926 193.421 27.1019 192.635 27.6365C191.952 28.0562 191.161 28.2671 190.36 28.2432C189.323 28.2698 188.309 27.9336 187.494 27.2927V27.2958ZM193.212 20.469C192.707 20.6414 192.293 20.7878 191.969 20.9082C191.269 21.1571 190.614 21.5156 190.028 21.9704C189.667 22.2511 189.381 22.6158 189.194 23.0326C189.069 23.3413 189.002 23.6703 188.996 24.0032C188.964 24.3265 189.01 24.6527 189.132 24.954C189.253 25.2553 189.446 25.5226 189.694 25.7329C190.199 26.0891 190.806 26.2702 191.424 26.2487C191.716 26.2503 192.007 26.2095 192.288 26.1276C192.635 26.0122 192.966 25.8541 193.274 25.657C193.658 25.4245 194.154 25.0857 194.761 24.6406V19.9979C194.234 20.138 193.718 20.294 193.212 20.4659V20.469ZM139.874 27.0191C139.167 26.1997 138.823 24.7887 138.843 22.786L138.934 15.2315L136.779 14.7766V13.685L141.239 13.2596L141.543 13.5632L141.391 17.8108V22.5131C141.391 23.829 141.594 24.7546 141.998 25.29C142.213 25.5615 142.491 25.7766 142.808 25.9167C143.125 26.0568 143.471 26.1178 143.817 26.0943C145.232 26.0943 146.648 25.437 148.065 24.1224L148.156 15.2014L146.002 14.7773V13.685L150.402 13.2596L150.705 13.5632L150.614 17.8108V26.3365L152.677 26.7619V27.8536L148.46 28.0964L148.156 25.3985C147.457 26.2993 146.573 27.0392 145.562 27.5681C144.702 28.0085 143.752 28.2422 142.786 28.2507C142.239 28.2768 141.694 28.1796 141.19 27.9664C140.686 27.7533 140.236 27.4295 139.874 27.0191ZM124.629 27.4138C123.543 26.8361 122.644 25.9632 122.034 24.896C121.327 23.6221 120.98 22.1802 121.03 20.7244C120.981 19.2493 121.327 17.7879 122.034 16.492C122.642 15.4076 123.541 14.5144 124.629 13.9127C125.655 13.3454 126.808 13.0479 127.981 13.0479C129.154 13.0479 130.307 13.3454 131.334 13.9127C132.423 14.5168 133.326 15.4091 133.942 16.492C134.658 17.7849 135.009 19.2476 134.959 20.7244C135.009 22.1819 134.658 23.6252 133.942 24.896C133.324 25.9617 132.421 26.8336 131.334 27.4138C130.301 27.9616 129.15 28.2481 127.981 28.2481C126.812 28.2481 125.661 27.9616 124.629 27.4138ZM124.962 16.0509C124.264 17.1237 123.916 18.6814 123.915 20.7238C123.915 22.7469 124.264 24.279 124.962 25.3201C125.285 25.8217 125.733 26.2299 126.263 26.504C126.793 26.7781 127.385 26.9086 127.981 26.8823C128.579 26.9073 129.173 26.7764 129.704 26.5026C130.236 26.2287 130.688 25.8212 131.015 25.3201C131.722 24.279 132.076 22.7469 132.076 20.7238C132.076 18.6805 131.723 17.1229 131.015 16.0509C130.696 15.5395 130.247 15.1214 129.714 14.8391C129.181 14.5567 128.583 14.42 127.981 14.4429C127.38 14.4191 126.784 14.5556 126.254 14.8383C125.723 15.121 125.278 15.5397 124.962 16.0515L124.962 16.0509ZM201.128 27.8536V26.7638L203.556 26.3384C203.575 25.5094 203.591 24.6952 203.601 23.8959C203.612 23.0966 203.617 22.2927 203.616 21.4842V8.16321L201.128 7.85954V6.79798L205.864 5.43213L206.289 5.67493L206.168 9.9833V21.4829C206.168 22.2919 206.173 23.1008 206.183 23.9097C206.193 24.7186 206.208 25.5278 206.229 26.3371L208.656 26.7625V27.8542L201.128 27.8536ZM176.978 27.8536V26.7638L179.223 26.3384C179.243 25.5905 179.258 24.7663 179.268 23.8658C179.278 22.9653 179.283 22.1706 179.283 21.4817V18.9031C179.283 17.5069 179.086 16.5449 178.692 16.017C178.458 15.7404 178.16 15.5242 177.825 15.3869C177.49 15.2497 177.126 15.1953 176.766 15.2284C176.076 15.2289 175.394 15.3736 174.763 15.6531C173.993 16.0163 173.278 16.4862 172.639 17.0491V21.4792C172.639 22.1463 172.644 22.9299 172.654 23.83C172.664 24.7301 172.68 25.5644 172.7 26.3327L174.793 26.7581V27.8498H167.761V26.7638L170.005 26.3384C170.025 25.57 170.04 24.741 170.051 23.8514C170.061 22.9617 170.066 22.1729 170.066 21.4848V20.0267C170.066 19.1973 170.061 18.5095 170.051 17.9632C170.04 17.417 170.015 16.8406 169.975 16.2341L167.578 15.9605V14.8984L171.825 13.0482L172.28 13.3518L172.523 15.7792C173.262 14.9773 174.135 14.3099 175.102 13.8067C175.977 13.3266 176.956 13.0664 177.954 13.0488C178.513 13.0078 179.074 13.1068 179.585 13.3369C180.096 13.5669 180.542 13.9207 180.883 14.3663C181.52 15.2447 181.838 16.6756 181.838 18.659V21.4823C181.838 22.1699 181.843 22.9588 181.853 23.8489C181.863 24.7389 181.879 25.5679 181.899 26.3359L184.022 26.7613V27.8529L176.978 27.8536ZM154.982 27.8536V26.7638L157.166 26.3691C157.186 25.6004 157.202 24.7659 157.212 23.8658C157.222 22.9657 157.228 22.171 157.228 21.4817V20.0267C157.228 19.1973 157.222 18.5095 157.212 17.9632C157.202 17.417 157.176 16.8406 157.136 16.2341L154.739 15.9605V14.8984L158.987 13.0482L159.442 13.3518L159.776 16.9324C160.197 15.8406 160.869 14.8632 161.737 14.079C162.389 13.4528 163.246 13.086 164.149 13.0475C164.602 13.0449 165.049 13.149 165.454 13.3512C165.826 13.5239 166.134 13.8107 166.332 14.1699C166.332 15.6468 165.735 16.3851 164.542 16.3847C164.208 16.387 163.877 16.3199 163.571 16.1877C163.251 16.045 162.955 15.8546 162.692 15.623L162.328 15.2892C161.722 15.7334 161.207 16.2897 160.811 16.928C160.377 17.6388 160.039 18.404 159.807 19.2036V21.4792C159.807 22.1463 159.812 22.9251 159.821 23.8156C159.831 24.7061 159.846 25.5351 159.867 26.3026L162.355 26.7581V27.8498L154.982 27.8536ZM100.278 27.8536V26.4281L101.856 26.0943C101.875 25.346 101.886 24.5513 101.886 23.7102V18.2939C101.943 17.5881 101.807 16.88 101.492 16.246C101.349 16.0452 101.156 15.885 100.933 15.7812C100.709 15.6774 100.463 15.6334 100.217 15.6537C99.2516 15.7235 98.3354 16.1071 97.6083 16.7461V23.7102C97.6083 24.5697 97.6183 25.3737 97.6384 26.1219L99.0645 26.4256V27.8511H91.0877V26.4281L92.7234 26.0642C92.7426 25.336 92.7528 24.5472 92.7541 23.6977V19.7231C92.7541 18.8943 92.7485 18.2512 92.7384 17.7963C92.7284 17.3415 92.7033 16.81 92.6619 16.204L90.811 15.9304V14.7472L96.7883 12.7144L97.3347 13.0482L97.5161 15.2321C98.1568 14.4235 98.9587 13.7569 99.8707 13.2746C100.652 12.9001 101.507 12.7081 102.373 12.7131C102.965 12.689 103.554 12.793 104.102 13.0182C104.649 13.2433 105.141 13.5842 105.544 14.0175C106.344 14.8875 106.743 16.1923 106.743 17.9318V23.7422C106.743 24.5821 106.753 25.3768 106.773 26.1263L108.29 26.43V27.8554L100.278 27.8536ZM81.5581 27.8536V26.4281L83.1969 26.0642C83.2166 25.336 83.2266 24.5472 83.227 23.6977V20.0267C83.227 19.1973 83.2218 18.5042 83.2113 17.9475C83.2009 17.3908 83.1758 16.8094 83.136 16.2034L81.2538 15.9298V14.7472L87.6251 12.7144L88.1414 13.0482L88.0505 17.4475V23.7133C88.0505 24.5729 88.0605 25.3768 88.0806 26.1251L89.597 26.4287V27.8542L81.5581 27.8536ZM83.7735 9.78441C83.5288 9.57174 83.3339 9.30781 83.2027 9.01136C83.0715 8.71491 83.0072 8.39321 83.0143 8.0691C83.0051 7.74047 83.0683 7.41385 83.1995 7.11241C83.3307 6.81098 83.5267 6.54212 83.7735 6.32492C84.2776 5.88508 84.9239 5.64274 85.5929 5.64274C86.2619 5.64274 86.9083 5.88508 87.4124 6.32492C87.6588 6.54237 87.8544 6.81131 87.9854 7.11271C88.1163 7.41411 88.1795 7.7406 88.1703 8.0691C88.1774 8.39308 88.1131 8.71465 87.9822 9.01106C87.8512 9.30747 87.6567 9.57148 87.4124 9.78441C86.9082 10.224 86.2619 10.4662 85.5929 10.4662C84.924 10.4662 84.2777 10.224 83.7735 9.78441Z"
      fill="white" />
  </g>
  <defs>
    <linearGradient id="paint0_linear_1874_9516" x1="7.74178" y1="0.507691" x2="37.7148"
      y2="37.3272" gradientUnits="userSpaceOnUse">
      <stop stop-color="#3100B5" />
      <stop offset="1" stop-color="#8E64FF" />
    </linearGradient>
    <clipPath id="clip0_1874_9516">
      <rect width="207.765" height="36.8222" fill="white" transform="translate(0.898438 0.508057)" />
    </clipPath>
  </defs>
</svg>
