<svg xmlns="http://www.w3.org/2000/svg" width="205" height="47" viewBox="0 0 205 47" fill="none">
  <g clip-path="url(#clip0_1874_9448)">
    <path
      d="M30.5345 33.9257L22.0929 37.505V37.147C20.4636 37.505 18.6125 37.7912 16.9092 37.8628C8.9118 37.8628 2.61751 33.7111 2.46942 28.915V27.1254C5.06117 30.7762 10.4669 33.2815 16.9092 33.2099C19.0567 33.2815 21.3523 32.9953 23.2035 32.4941L23.944 30.7046C21.7226 31.3488 19.2789 31.7783 16.9092 31.7783C8.9118 31.7783 2.61751 27.7696 2.46942 22.8305V21.3989C5.06117 24.8347 10.4669 27.2686 16.9092 27.1254C19.7973 27.2686 22.6111 26.696 25.0548 25.6937L25.4251 23.9041C23.0555 25.0495 20.0934 25.7653 16.9833 25.6937C8.98585 25.7653 2.69156 21.7567 2.54345 16.7459V15.3143C5.13522 18.8218 10.5409 21.2557 16.9833 21.3989C20.6118 21.3273 24.0922 20.325 26.9801 18.8934L27.3504 16.7459C24.7585 18.607 20.9821 19.824 16.9833 19.9672C8.98585 19.824 2.69156 15.7438 2.54345 10.6614C2.54345 5.86534 8.98585 1.78512 16.9833 1.78512C21.7226 1.78512 26.1656 3.43153 28.7573 6.0801L29.0534 6.50959H30.9048L30.6087 6.0801C28.0168 2.71569 22.7592 0.425049 16.9092 0.425049C8.02319 0.425049 0.988403 5.07794 0.988403 10.733V11.0909V29.273C1.28461 34.7847 8.1713 39.2944 16.8352 39.2944C22.5371 39.2944 27.7207 37.147 30.5345 33.9257Z"
      fill="white" />
    <path
      d="M27.0563 46.4528L30.0182 34.2122L21.4284 37.7913L26.686 16.5313H16.6152L19.207 6.0802H51.2708L48.6791 16.5313H38.2379L36.0163 22.3295L47.5683 17.6767L27.0563 46.4528ZM32.3138 31.7068L30.8329 38.9367L43.1252 20.9693L33.0544 25.2644L37.4974 15.1712H47.5683L49.4196 7.58345H20.3176L18.4665 15.1712H28.5373L23.65 35.3576L32.2398 31.7784L32.3138 31.7068Z"
      fill="#FAC02F" />
    <path
      d="M72.5958 13.1671C72.5958 14.3124 72.2257 15.243 71.4852 15.8872C70.7446 16.5315 69.708 16.8894 68.3751 16.8894C67.0421 16.8894 65.9313 16.4599 65.1908 15.6725C64.3763 14.8851 64.006 13.7398 64.006 12.4513V10.3038C64.006 9.01529 64.4502 7.94155 65.1908 7.08257C66.0053 6.29516 67.0421 5.86565 68.3751 5.86565C69.708 5.86565 70.8186 6.22357 71.5591 6.79623C72.3737 7.44048 72.7439 8.37106 72.6699 9.51638H70.5225C70.5225 8.80055 70.3744 8.29947 70.0041 7.94155C69.6338 7.58364 69.1156 7.44048 68.3751 7.44048C67.6345 7.44048 67.1903 7.7268 66.82 8.22789C66.4497 8.72896 66.2276 9.37322 66.2276 10.2322V12.3797C66.2276 13.1671 66.4497 13.8829 66.82 14.384C67.1903 14.8851 67.7827 15.1714 68.449 15.1714C69.1154 15.1714 69.6338 15.0282 69.9301 14.6703C70.2262 14.3124 70.4483 13.8113 70.4483 13.0955H72.5958V13.1671ZM84.8883 12.3081C84.8883 13.5966 84.444 14.7419 83.6293 15.6009C82.8148 16.4599 81.63 16.8894 80.2971 16.8894C78.9642 16.8894 77.8535 16.4599 76.9648 15.6009C76.1503 14.7419 75.7061 13.6682 75.7061 12.3081V10.3754C75.7061 9.08687 76.1503 8.01313 76.9648 7.08257C77.7794 6.22357 78.9642 5.79407 80.2971 5.79407C81.63 5.79407 82.8148 6.22357 83.6293 7.08257C84.518 7.94155 84.8883 9.01529 84.8883 10.3754V12.3081ZM82.6667 10.3754C82.6667 9.51638 82.4445 8.87213 82.0003 8.29947C81.556 7.79839 80.9636 7.51206 80.2231 7.51206C79.4826 7.51206 78.8902 7.79839 78.4459 8.29947C78.0756 8.80055 77.7794 9.51638 77.7794 10.3754V12.3081C77.7794 13.1671 78.0015 13.8829 78.4459 14.384C78.8162 14.8851 79.4826 15.1714 80.2231 15.1714C80.9636 15.1714 81.556 14.8851 82.0003 14.384C82.4445 13.8829 82.6667 13.1671 82.6667 12.3081V10.3754ZM90.6642 16.7462H88.4426V6.00883H90.6642V16.7462ZM103.549 16.7462H101.327L96.8844 9.51638V16.7462H94.6628V6.00883H96.8844L101.327 13.2387V6.00883H103.549V16.7462ZM114.805 7.65522H111.62V16.7462H109.399V7.65522H106.289V6.00883H114.805V7.65522ZM124.061 12.0218H119.914V15.0998H124.801V16.7462H117.693V6.00883H124.801V7.65522H119.914V10.3754H124.061V12.0218ZM130.281 15.0998H135.243V16.7462H127.986V6.00883H130.207V15.0998H130.281ZM144.795 12.0218H140.648V15.0998H145.536V16.7462H138.427V6.00883H145.536V7.65522H140.648V10.3754H144.795V12.0218ZM157.31 15.3146C156.939 15.7441 156.495 16.102 155.755 16.4599C155.088 16.8178 154.2 16.961 153.089 16.961C151.756 16.961 150.645 16.5315 149.83 15.7441C149.016 14.9567 148.572 13.8829 148.572 12.5944V10.3038C148.572 9.01529 149.016 7.94155 149.83 7.15415C150.645 6.36674 151.756 5.93725 153.015 5.93725C154.348 5.93725 155.458 6.29516 156.125 6.86781C156.791 7.44048 157.235 8.29947 157.161 9.37322H155.088C155.088 8.80055 154.94 8.37106 154.57 8.01313C154.2 7.65522 153.755 7.51206 153.089 7.51206C152.422 7.51206 151.904 7.79839 151.46 8.29947C151.089 8.80055 150.867 9.4448 150.867 10.2322V12.5229C150.867 13.3103 151.089 14.0261 151.534 14.5272C151.978 15.0282 152.57 15.3146 153.237 15.3146C153.755 15.3146 154.2 15.3146 154.496 15.1714C154.792 15.0998 155.014 14.9567 155.236 14.8135V12.7376H153.089V11.2344H157.458V15.4577L157.31 15.3146ZM163.086 12.4513V16.7462H160.864V5.93725H164.715C165.974 5.93725 167.01 6.22357 167.677 6.79623C168.417 7.3689 168.787 8.15631 168.787 9.15847C168.787 9.73112 168.639 10.1606 168.343 10.5901C168.047 10.948 167.603 11.306 167.01 11.5923C167.677 11.807 168.121 12.0934 168.417 12.5229C168.713 12.9523 168.861 13.525 168.861 14.1693V14.9567C168.861 14.9567 168.861 15.6009 169.01 15.8872C169.01 16.2452 169.232 16.4599 169.454 16.6031V16.7462H167.158C166.936 16.6031 166.788 16.3167 166.714 15.9588C166.714 15.6009 166.64 15.243 166.64 14.8851V14.0977C166.64 13.5966 166.492 13.1671 166.196 12.8808C165.899 12.5944 165.455 12.4513 164.937 12.4513H163.086ZM163.086 10.8049H164.715C165.307 10.8049 165.825 10.6617 166.122 10.447C166.418 10.1606 166.566 9.80271 166.566 9.30163C166.566 8.80055 166.418 8.44264 166.122 8.15631C165.825 7.86997 165.381 7.72681 164.789 7.72681H163.16V10.8764L163.086 10.8049ZM178.266 14.4556H174.637L173.897 16.7462H171.528L175.304 6.00883H177.6L181.303 16.7462H178.933L178.191 14.384L178.266 14.4556ZM175.23 12.7376H177.748L176.563 8.94371L175.304 12.7376H175.23ZM186.337 12.8092V16.6747H184.115V6.00883H188.411C189.669 6.00883 190.706 6.36674 191.447 6.93939C192.187 7.58364 192.557 8.44264 192.557 9.4448C192.557 10.447 192.187 11.306 191.447 11.9502C190.706 12.5944 189.744 12.8808 188.411 12.8808H186.412L186.337 12.8092ZM186.337 11.1628H188.336C188.929 11.1628 189.448 11.0196 189.744 10.6617C190.039 10.3038 190.188 9.87429 190.188 9.4448C190.188 8.94371 190.039 8.51422 189.744 8.15631C189.448 7.79839 188.929 7.65522 188.336 7.65522H186.337V11.1628ZM204.702 16.6747H202.48V12.2365H197.963V16.6747H195.742V5.93725H197.963V10.5901H202.48V5.93725H204.702V16.6747Z"
      fill="white" />
    <path
      d="M68.0054 34.2835H66.5985V27.1968H64.0808V26.0514H70.5231V27.1968H68.0054V34.2835ZM77.3357 34.2835H75.9288V30.418C75.9288 29.9169 75.8548 29.559 75.6327 29.3442C75.4104 29.1294 75.1143 28.9864 74.6701 28.9864C74.0777 28.9864 73.7074 29.1294 73.4111 29.4874C73.115 29.8454 73.0408 30.3464 72.9669 31.1339V34.2119H71.6339V25.4788H72.9669V27.6978C72.9669 28.0558 72.9669 28.4136 72.9669 28.8432H73.0408C73.0408 28.8432 73.4853 28.342 73.8554 28.1274C74.2256 27.9842 74.5959 27.841 75.0403 27.841C76.5954 27.841 77.4099 28.6284 77.4099 30.1316V34.2119L77.3357 34.2835ZM82.0751 34.3551C81.0384 34.3551 80.2979 34.0687 79.7055 33.4961C79.1131 32.9235 78.8908 32.1361 78.8908 31.1339C78.8908 30.1316 79.1871 29.3442 79.7055 28.7716C80.2237 28.199 80.9643 27.9126 81.8529 27.9126C82.6675 27.9126 83.408 28.199 83.8522 28.7C84.3706 29.201 84.5928 29.8454 84.5928 30.7759V31.4917H80.2979C80.2979 32.0645 80.52 32.5655 80.8161 32.8519C81.1124 33.2097 81.6308 33.3529 82.149 33.3529C82.5193 33.3529 82.8896 33.3529 83.1859 33.2813C83.5561 33.2813 83.8522 33.0665 84.2225 32.9235V33.9971C84.2225 33.9971 83.5561 34.2835 83.1859 34.3551C82.8896 34.3551 82.4453 34.4267 82.0009 34.4267L82.0751 34.3551ZM81.8529 28.9148C81.4085 28.9148 81.0384 29.058 80.8161 29.2726C80.594 29.4874 80.4458 29.9169 80.3719 30.418H83.2598C83.2598 29.9169 83.1117 29.4874 82.8896 29.2726C82.6674 28.9864 82.2972 28.9148 81.8529 28.9148ZM92.442 28.9864H90.887V34.2119H89.4801V28.9864H88.4434V28.342L89.4801 27.9842V27.6262C89.4801 26.9104 89.6282 26.3378 89.9985 25.98C90.3687 25.622 90.887 25.4788 91.6275 25.4788C92.0718 25.4788 92.5902 25.4788 93.0344 25.6936L92.6643 26.6958C92.6643 26.6958 91.9978 26.5526 91.7017 26.5526C91.4054 26.5526 91.1833 26.6242 91.0351 26.8388C90.887 27.0536 90.813 27.2684 90.813 27.6262V27.9842H92.368V28.9864H92.442ZM98.0699 34.2119L97.8477 33.4245C97.8477 33.4245 97.4035 33.9255 97.0332 34.1403C96.6629 34.2835 96.2927 34.4267 95.8484 34.4267C95.0339 34.4267 94.5155 34.2119 94.0712 33.8539C93.701 33.4961 93.4788 32.9235 93.4788 32.1361V28.0558H94.8858V31.9213C94.8858 32.4223 94.9597 32.7087 95.182 32.9949C95.4042 33.2097 95.7003 33.3529 96.1447 33.3529C96.7371 33.3529 97.1074 33.2097 97.4035 32.8519C97.6998 32.4939 97.7737 31.9929 97.8477 31.2055V28.0558H99.2548V34.2835H98.144L98.0699 34.2119ZM103.476 33.2097C103.476 33.2097 104.142 33.2097 104.512 33.0665V34.0687C104.512 34.0687 104.142 34.2119 103.92 34.2119C103.698 34.2119 103.476 34.2119 103.179 34.2119C101.92 34.2119 101.254 33.5677 101.254 32.2791V28.9148H100.365V28.342L101.328 27.841L101.773 26.5526H102.587V27.9126H104.438V28.9148H102.587V32.2791C102.587 32.6371 102.587 32.8519 102.809 32.9949C102.883 33.1381 103.179 33.2097 103.402 33.2097H103.476ZM110.288 34.2119L110.066 33.4245C110.066 33.4245 109.622 33.9255 109.252 34.1403C108.881 34.2835 108.511 34.4267 108.067 34.4267C107.252 34.4267 106.734 34.2119 106.29 33.8539C105.919 33.4961 105.697 32.9235 105.697 32.1361V28.0558H107.104V31.9213C107.104 32.4223 107.178 32.7087 107.4 32.9949C107.622 33.2097 107.919 33.3529 108.363 33.3529C108.955 33.3529 109.326 33.2097 109.622 32.8519C109.918 32.4939 109.992 31.9929 110.066 31.2055V28.0558H111.473V34.2835H110.362L110.288 34.2119ZM116.583 27.841C116.583 27.841 117.101 27.841 117.249 27.841L117.101 29.058C117.101 29.058 116.731 29.058 116.509 29.058C115.99 29.058 115.546 29.201 115.176 29.559C114.805 29.9169 114.657 30.3464 114.657 30.9191V34.1403H113.324V27.9126H114.435L114.583 28.9864C114.805 28.6284 115.101 28.342 115.398 28.1274C115.694 27.9126 116.064 27.7694 116.509 27.7694L116.583 27.841ZM121.026 34.2835C119.989 34.2835 119.248 33.9971 118.656 33.4245C118.064 32.8519 117.841 32.0645 117.841 31.0623C117.841 30.0601 118.138 29.2726 118.656 28.7C119.174 28.1274 119.915 27.841 120.803 27.841C121.618 27.841 122.359 28.1274 122.803 28.6284C123.321 29.1294 123.543 29.7738 123.543 30.7043V31.4201H119.248C119.248 31.9929 119.471 32.4939 119.767 32.7803C120.063 33.1381 120.581 33.2813 121.1 33.2813C121.47 33.2813 121.84 33.2813 122.136 33.2097C122.507 33.2097 122.803 32.9949 123.173 32.8519V33.9255C123.173 33.9255 122.507 34.2119 122.136 34.2835C121.766 34.2835 121.396 34.3551 120.952 34.3551L121.026 34.2835ZM120.803 28.8432C120.359 28.8432 119.989 28.9864 119.767 29.201C119.471 29.4874 119.397 29.8454 119.322 30.3464H122.21C122.21 29.8454 122.062 29.4158 121.84 29.201C121.544 28.9148 121.248 28.8432 120.803 28.8432ZM133.91 31.0623C133.91 32.0645 133.614 32.8519 133.096 33.4245C132.578 33.9971 131.837 34.2835 130.874 34.2835C130.282 34.2835 129.764 34.1403 129.245 33.8539C128.727 33.5677 128.431 33.2097 128.208 32.7087C127.986 32.2075 127.838 31.6349 127.838 30.9907C127.838 29.9885 128.134 29.201 128.653 28.6284C129.171 28.0558 129.912 27.7694 130.948 27.7694C131.837 27.7694 132.578 28.0558 133.17 28.6284C133.688 29.201 133.984 29.9885 133.984 30.9907L133.91 31.0623ZM129.245 31.0623C129.245 32.4939 129.764 33.2097 130.874 33.2097C131.985 33.2097 132.503 32.4939 132.503 31.0623C132.503 29.6306 131.985 28.9148 130.874 28.9148C130.282 28.9148 129.912 29.1294 129.615 29.4874C129.319 29.8454 129.245 30.3464 129.245 31.0623ZM138.724 28.9864H137.169V34.2119H135.762V28.9864H134.725V28.342L135.762 27.9842V27.6262C135.762 26.9104 135.91 26.3378 136.28 25.98C136.65 25.622 137.169 25.4788 137.909 25.4788C138.353 25.4788 138.872 25.4788 139.316 25.6936L138.946 26.6958C138.946 26.6958 138.279 26.5526 137.983 26.5526C137.687 26.5526 137.465 26.6242 137.317 26.8388C137.169 26.982 137.095 27.2684 137.095 27.6262V27.9842H138.65V28.9864H138.724ZM148.35 34.2119H146.943V30.3464C146.943 29.8454 146.869 29.559 146.647 29.2726C146.499 29.058 146.203 28.9148 145.758 28.9148C145.24 28.9148 144.87 29.058 144.574 29.4158C144.351 29.7738 144.203 30.2748 144.203 31.0623V34.1403H142.871V27.9126H143.981L144.203 28.7C144.203 28.7 144.648 28.199 145.018 27.9842C145.388 27.841 145.758 27.7694 146.129 27.7694C147.091 27.7694 147.758 28.1274 148.128 28.7716H148.202C148.202 28.7716 148.646 28.199 149.017 28.0558C149.387 27.9126 149.757 27.7694 150.202 27.7694C151.016 27.7694 151.534 27.9842 151.905 28.342C152.275 28.7 152.423 29.2726 152.423 30.0601V34.1403H151.09V30.2748C151.09 29.7738 151.016 29.4874 150.794 29.201C150.572 28.9864 150.35 28.8432 149.905 28.8432C149.387 28.8432 149.017 28.9864 148.72 29.3442C148.498 29.7022 148.35 30.1317 148.35 30.8475V34.1403H148.276L148.35 34.2119ZM160.05 31.0623C160.05 32.0645 159.754 32.8519 159.236 33.4245C158.717 33.9971 157.977 34.2835 157.014 34.2835C156.422 34.2835 155.903 34.1403 155.385 33.8539C154.941 33.5677 154.57 33.2097 154.348 32.7087C154.126 32.2075 153.978 31.6349 153.978 30.9907C153.978 29.9885 154.274 29.201 154.793 28.6284C155.311 28.0558 156.051 27.7694 157.088 27.7694C157.977 27.7694 158.717 28.0558 159.31 28.6284C159.828 29.201 160.124 29.9885 160.124 30.9907L160.05 31.0623ZM155.385 31.0623C155.385 32.4939 155.903 33.2097 157.014 33.2097C158.125 33.2097 158.643 32.4939 158.643 31.0623C158.643 29.6306 158.125 28.9148 157.014 28.9148C156.422 28.9148 156.051 29.1294 155.755 29.4874C155.459 29.8454 155.385 30.3464 155.385 31.0623ZM167.307 34.2119H165.9V30.3464C165.9 29.8454 165.826 29.4874 165.604 29.2726C165.382 29.058 165.086 28.9148 164.641 28.9148C164.049 28.9148 163.605 29.058 163.382 29.4158C163.16 29.7738 163.012 30.2748 163.012 31.0623V34.1403H161.679V27.9126H162.79L163.012 28.7C163.012 28.7 163.456 28.199 163.827 27.9842C164.197 27.841 164.567 27.7694 165.012 27.7694C166.567 27.7694 167.307 28.5568 167.307 30.0601V34.0687V34.2119ZM172.046 34.2835C171.01 34.2835 170.269 33.9971 169.677 33.4245C169.084 32.8519 168.862 32.0645 168.862 31.0623C168.862 30.0601 169.158 29.2726 169.677 28.7C170.195 28.1274 170.935 27.841 171.825 27.841C172.638 27.841 173.38 28.1274 173.823 28.6284C174.343 29.1294 174.564 29.7738 174.564 30.7043V31.4201H170.269C170.269 31.9929 170.491 32.4939 170.787 32.7803C171.083 33.1381 171.602 33.2813 172.12 33.2813C172.491 33.2813 172.861 33.2813 173.158 33.2097C173.453 33.2097 173.823 32.9949 174.194 32.8519V33.9255C174.194 33.9255 173.528 34.2119 173.158 34.2835C172.786 34.2835 172.416 34.3551 171.971 34.3551L172.046 34.2835ZM171.75 28.8432C171.307 28.8432 170.935 28.9864 170.713 29.201C170.417 29.4874 170.343 29.8454 170.269 30.3464H173.158C173.158 29.8454 173.01 29.4158 172.786 29.201C172.565 28.9148 172.195 28.8432 171.75 28.8432ZM174.861 27.9842H176.341L177.674 31.4917C177.897 31.9929 178.044 32.4939 178.044 32.9235C178.044 32.9235 178.119 32.4939 178.267 32.1361C178.34 31.8497 178.859 30.418 179.748 27.9126H181.228L178.489 34.9277C177.97 36.2162 177.156 36.8604 175.971 36.8604C175.674 36.8604 175.379 36.8604 175.083 36.7888V35.7152C175.083 35.7152 175.527 35.7152 175.822 35.7152C176.489 35.7152 176.934 35.3572 177.231 34.5697L177.452 33.9971L174.786 27.7694L174.861 27.9842Z"
      fill="white" />
  </g>
  <defs>
    <clipPath id="clip0_1874_9448">
      <rect width="204.568" height="46.0277" fill="white" transform="translate(0.154404 0.424927)" />
    </clipPath>
  </defs>
</svg>
