<svg
  xmlns="http://www.w3.org/2000/svg"
  width="211"
  height="35"
  viewBox="0 0 211 35"
  fill="none"
>
  <path
    d="M11.9046 7.55801C11.1305 7.55801 10.4393 7.72389 9.83108 8.05566C9.22283 8.37637 8.70306 8.84638 8.27175 9.46569C7.84045 10.085 7.50868 10.8425 7.27644 11.7383C7.05526 12.623 6.94467 13.6294 6.94467 14.7574C6.94467 16.2836 7.1382 17.5664 7.52527 18.606C7.91234 19.6455 8.49846 20.4307 9.28366 20.9616C10.0799 21.4924 11.0752 21.7578 12.2696 21.7578C13.3534 21.7578 14.3929 21.6085 15.3882 21.3099C16.3946 21.0113 17.4065 20.6519 18.4239 20.2317V25.7722C17.3512 26.2478 16.2508 26.5906 15.1228 26.8007C14.0059 27.0108 12.817 27.1159 11.5563 27.1159C8.92424 27.1159 6.76773 26.5961 5.08675 25.5566C3.41684 24.506 2.18375 23.0517 1.3875 21.1938C0.602313 19.3359 0.209717 17.1794 0.209717 14.7243C0.209717 12.8885 0.464075 11.2075 0.97279 9.68134C1.49256 8.15519 2.25011 6.83364 3.24542 5.71668C4.24074 4.58865 5.46829 3.72052 6.92808 3.11227C8.39893 2.49297 10.0799 2.18331 11.971 2.18331C13.1433 2.18331 14.3763 2.32155 15.6702 2.59803C16.9752 2.86344 18.247 3.29475 19.4856 3.89193L17.4784 9.05097C16.5937 8.63073 15.6979 8.27684 14.7911 7.98931C13.8842 7.70177 12.9221 7.55801 11.9046 7.55801Z"
    fill="#ED0F29"
  />
  <path
    d="M40.124 17.3453C40.124 18.9156 39.9084 20.3091 39.4771 21.5256C39.0458 22.7421 38.4209 23.765 37.6026 24.5944C36.7842 25.4239 35.7944 26.0542 34.6332 26.4855C33.472 26.9058 32.1615 27.1159 30.7017 27.1159C29.3415 27.1159 28.0918 26.9058 26.9527 26.4855C25.8247 26.0542 24.8404 25.4239 24 24.5944C23.1595 23.765 22.507 22.7421 22.0425 21.5256C21.5891 20.3091 21.3624 18.9156 21.3624 17.3453C21.3624 15.2662 21.7384 13.5078 22.4904 12.0701C23.2535 10.6324 24.3373 9.53757 25.7418 8.78556C27.1573 8.03354 28.8438 7.65754 30.8013 7.65754C32.6039 7.65754 34.2074 8.03354 35.6119 8.78556C37.0164 9.53757 38.1168 10.6324 38.9131 12.0701C39.7204 13.5078 40.124 15.2662 40.124 17.3453ZM27.948 17.3453C27.948 18.418 28.042 19.3248 28.23 20.0658C28.418 20.7957 28.7166 21.3542 29.1258 21.7412C29.5461 22.1172 30.0935 22.3052 30.7681 22.3052C31.4427 22.3052 31.9791 22.1172 32.3772 21.7412C32.7753 21.3542 33.0628 20.7957 33.2398 20.0658C33.4278 19.3248 33.5218 18.418 33.5218 17.3453C33.5218 16.2725 33.4278 15.3767 33.2398 14.6579C33.0628 13.9391 32.7698 13.3972 32.3606 13.0322C31.9625 12.6673 31.4206 12.4848 30.7349 12.4848C29.7507 12.4848 29.0373 12.894 28.595 13.7124C28.1637 14.5307 27.948 15.7417 27.948 17.3453Z"
    fill="#ED0F29"
  />
  <path
    d="M49.7477 7.98931V26.7841H43.2615V7.98931H49.7477ZM46.5295 0.424927C47.4584 0.424927 48.2657 0.61846 48.9514 1.00553C49.6481 1.39259 49.9965 2.1612 49.9965 3.31134C49.9965 4.4283 49.6481 5.18584 48.9514 5.58397C48.2657 5.97103 47.4584 6.16457 46.5295 6.16457C45.5784 6.16457 44.7656 5.97103 44.091 5.58397C43.4274 5.18584 43.0956 4.4283 43.0956 3.31134C43.0956 2.1612 43.4274 1.39259 44.091 1.00553C44.7656 0.61846 45.5784 0.424927 46.5295 0.424927Z"
    fill="#ED0F29"
  />
  <path
    d="M65.4261 7.65754C67.3614 7.65754 68.9429 8.20496 70.1704 9.2998C71.398 10.3946 72.0117 12.1475 72.0117 14.5584V26.7841H65.5256V16.5324C65.5256 15.2827 65.3431 14.3427 64.9782 13.7124C64.6243 13.0709 64.0492 12.7502 63.253 12.7502C62.0254 12.7502 61.2015 13.2534 60.7813 14.2598C60.361 15.2551 60.1509 16.6872 60.1509 18.5562V26.7841H53.6648V7.98931H58.5584L59.4376 10.4776H59.6864C60.0846 9.8804 60.5601 9.37169 61.1131 8.95144C61.666 8.5312 62.3019 8.21049 63.0208 7.98931C63.7396 7.76813 64.5414 7.65754 65.4261 7.65754Z"
    fill="#ED0F29"
  />
  <path
    d="M89.7803 21.0113C89.7803 22.2057 89.5149 23.2618 88.9841 24.1797C88.4533 25.0976 87.6017 25.8165 86.4295 26.3362C85.2683 26.856 83.7366 27.1159 81.8344 27.1159C80.4963 27.1159 79.2964 27.044 78.2347 26.9003C77.1841 26.7565 76.1169 26.48 75.0331 26.0708V20.8786C76.2164 21.4205 77.4219 21.8131 78.6494 22.0564C79.877 22.2886 80.8446 22.4048 81.5524 22.4048C82.2823 22.4048 82.8131 22.3273 83.1449 22.1725C83.4877 22.0066 83.6592 21.7633 83.6592 21.4426C83.6592 21.1661 83.543 20.9339 83.3108 20.7459C83.0896 20.5468 82.686 20.3201 82.0998 20.0658C81.5248 19.8114 80.7119 19.4686 79.6613 19.0373C78.6218 18.606 77.7536 18.136 77.0569 17.6273C76.3713 17.1185 75.857 16.5103 75.5142 15.8025C75.1713 15.0947 74.9999 14.2266 74.9999 13.1981C74.9999 11.3623 75.7077 9.97993 77.1233 9.05097C78.5388 8.12202 80.4133 7.65754 82.7468 7.65754C83.9854 7.65754 85.1521 7.79577 86.247 8.07225C87.3418 8.33767 88.4754 8.73026 89.6476 9.25004L87.8727 13.4304C86.9437 13.0101 86.0037 12.6728 85.0526 12.4185C84.1015 12.1641 83.344 12.0369 82.78 12.0369C82.2713 12.0369 81.8787 12.1033 81.6022 12.236C81.3257 12.3687 81.1875 12.5622 81.1875 12.8166C81.1875 13.0488 81.2815 13.2534 81.4695 13.4304C81.6685 13.6073 82.039 13.8119 82.5809 14.0441C83.1228 14.2764 83.9135 14.6026 84.9531 15.0229C86.0479 15.4652 86.9492 15.9408 87.657 16.4495C88.3758 16.9471 88.9067 17.5554 89.2495 18.2742C89.6034 18.993 89.7803 19.9054 89.7803 21.0113Z"
    fill="#ED0F29"
  />
  <path
    d="M104.264 7.65754C106.344 7.65754 107.975 8.49249 109.158 10.1624C110.341 11.8213 110.933 14.2155 110.933 17.3453C110.933 19.4796 110.634 21.2767 110.037 22.7365C109.44 24.1853 108.622 25.2801 107.582 26.0211C106.554 26.751 105.381 27.1159 104.065 27.1159C103.181 27.1159 102.429 27.0053 101.809 26.7841C101.201 26.563 100.692 26.2865 100.283 25.9547C99.885 25.6229 99.5477 25.2856 99.2713 24.9428H99.0722C99.1275 25.3741 99.1717 25.8386 99.2049 26.3362C99.2491 26.8339 99.2713 27.4145 99.2713 28.078V34.9457H92.7851V7.98931H98.0603L98.9727 10.3781H99.2713C99.5809 9.89146 99.9569 9.44357 100.399 9.03439C100.842 8.61414 101.378 8.28237 102.008 8.03907C102.65 7.78472 103.402 7.65754 104.264 7.65754ZM101.826 12.7502C101.196 12.7502 100.698 12.8995 100.333 13.1981C99.968 13.4967 99.7026 13.9501 99.5367 14.5584C99.3818 15.1556 99.2934 15.902 99.2713 16.7978V17.3121C99.2713 18.3074 99.3487 19.1479 99.5035 19.8335C99.6583 20.5081 99.9237 21.0224 100.3 21.3763C100.676 21.7191 101.196 21.8905 101.859 21.8905C102.401 21.8905 102.854 21.7357 103.219 21.426C103.584 21.1164 103.861 20.6243 104.049 19.9497C104.237 19.2751 104.331 18.3848 104.331 17.2789C104.331 15.6311 104.115 14.4644 103.684 13.7787C103.264 13.0931 102.644 12.7502 101.826 12.7502Z"
    fill="#ED0F29"
  />
  <path
    d="M122.497 7.65754C124.322 7.65754 125.898 7.97825 127.225 8.61967C128.552 9.25004 129.575 10.2011 130.294 11.4729C131.013 12.7447 131.372 14.3372 131.372 16.2504V19.1368H119.777C119.832 20.1211 120.197 20.9284 120.872 21.5587C121.557 22.1891 122.564 22.5043 123.891 22.5043C125.063 22.5043 126.136 22.3882 127.109 22.1559C128.093 21.9237 129.105 21.5643 130.145 21.0777V25.7391C129.238 26.2146 128.248 26.563 127.175 26.7841C126.103 27.0053 124.748 27.1159 123.111 27.1159C121.22 27.1159 119.528 26.7786 118.035 26.104C116.542 25.4294 115.364 24.3843 114.502 22.9688C113.65 21.5532 113.224 19.734 113.224 17.5111C113.224 15.2551 113.612 13.4027 114.386 11.954C115.16 10.4942 116.244 9.41592 117.637 8.7192C119.03 8.01143 120.651 7.65754 122.497 7.65754ZM122.73 12.0701C121.967 12.0701 121.325 12.3134 120.805 12.8C120.297 13.2755 119.998 14.0275 119.91 15.056H125.483C125.472 14.5031 125.362 13.9999 125.152 13.5465C124.942 13.0931 124.632 12.7336 124.223 12.4682C123.825 12.2028 123.327 12.0701 122.73 12.0701Z"
    fill="#ED0F29"
  />
  <path
    d="M143.6 7.65754C145.978 7.65754 147.836 8.2492 149.174 9.43251C150.512 10.6048 151.181 12.2802 151.181 14.4588V26.7841H146.686L145.442 24.2959H145.309C144.778 24.9594 144.231 25.5013 143.667 25.9215C143.114 26.3307 142.478 26.6293 141.759 26.8173C141.04 27.0164 140.161 27.1159 139.121 27.1159C138.038 27.1159 137.064 26.8947 136.202 26.4524C135.339 26.01 134.659 25.3409 134.161 24.4452C133.664 23.5494 133.415 22.4158 133.415 21.0445C133.415 19.0318 134.112 17.5388 135.505 16.5656C136.899 15.5924 138.917 15.045 141.56 14.9233L144.695 14.8238V14.5584C144.695 13.7179 144.485 13.1207 144.065 12.7668C143.656 12.4129 143.103 12.236 142.406 12.236C141.665 12.236 140.836 12.3687 139.918 12.6341C139.011 12.8885 138.099 13.2202 137.181 13.6294L135.306 9.34957C136.39 8.79662 137.617 8.37637 138.989 8.08884C140.36 7.8013 141.897 7.65754 143.6 7.65754ZM144.728 18.3903L143.235 18.4567C142.041 18.5009 141.201 18.711 140.714 19.0871C140.238 19.452 140.001 19.9773 140.001 20.663C140.001 21.3044 140.172 21.7799 140.515 22.0896C140.858 22.3882 141.311 22.5375 141.875 22.5375C142.66 22.5375 143.329 22.2886 143.882 21.791C144.446 21.2933 144.728 20.6464 144.728 19.8501V18.3903Z"
    fill="#ED0F29"
  />
  <path
    d="M161.502 0.972349V11.1245C161.502 11.8876 161.469 12.7392 161.402 13.6792C161.347 14.6081 161.258 15.4542 161.137 16.2172H161.269C161.524 15.8302 161.845 15.3436 162.232 14.7574C162.619 14.1713 162.967 13.6847 163.277 13.2976L167.49 7.98931H174.723L168.203 15.985L175.137 26.7841H167.722L163.608 20.0492L161.502 21.6583V26.7841H154.982V0.972349H161.502Z"
    fill="#ED0F29"
  />
  <path
    d="M185.226 7.65754C187.05 7.65754 188.626 7.97825 189.953 8.61967C191.28 9.25004 192.303 10.2011 193.022 11.4729C193.741 12.7447 194.1 14.3372 194.1 16.2504V19.1368H182.505C182.56 20.1211 182.925 20.9284 183.6 21.5587C184.286 22.1891 185.292 22.5043 186.619 22.5043C187.791 22.5043 188.864 22.3882 189.837 22.1559C190.821 21.9237 191.833 21.5643 192.873 21.0777V25.7391C191.966 26.2146 190.976 26.563 189.904 26.7841C188.831 27.0053 187.476 27.1159 185.839 27.1159C183.948 27.1159 182.256 26.7786 180.763 26.104C179.27 25.4294 178.092 24.3843 177.23 22.9688C176.378 21.5532 175.953 19.734 175.953 17.5111C175.953 15.2551 176.34 13.4027 177.114 11.954C177.888 10.4942 178.972 9.41592 180.365 8.7192C181.759 8.01143 183.379 7.65754 185.226 7.65754ZM185.458 12.0701C184.695 12.0701 184.053 12.3134 183.534 12.8C183.025 13.2755 182.726 14.0275 182.638 15.056H188.212C188.2 14.5031 188.09 13.9999 187.88 13.5465C187.67 13.0931 187.36 12.7336 186.951 12.4682C186.553 12.2028 186.055 12.0701 185.458 12.0701Z"
    fill="#ED0F29"
  />
  <path
    d="M208.502 7.65754C208.855 7.65754 209.226 7.68518 209.613 7.74048C210 7.78472 210.288 7.82342 210.476 7.8566L209.895 13.9778C209.685 13.9225 209.414 13.8782 209.082 13.8451C208.75 13.8008 208.286 13.7787 207.689 13.7787C207.28 13.7787 206.843 13.8174 206.378 13.8948C205.914 13.9722 205.471 14.1381 205.051 14.3925C204.642 14.6358 204.305 15.0118 204.039 15.5205C203.774 16.0182 203.641 16.6928 203.641 17.5443V26.7841H197.155V7.98931H201.982L202.994 10.9918H203.309C203.652 10.3725 204.089 9.81405 204.62 9.31639C205.162 8.80768 205.764 8.40402 206.428 8.10543C207.103 7.80683 207.794 7.65754 208.502 7.65754Z"
    fill="#ED0F29"
  />
</svg>
