<svg xmlns="http://www.w3.org/2000/svg" width="163" height="38" viewBox="0 0 163 38" fill="none">
  <g clip-path="url(#clip0_1874_9348)">
    <path d="M28.875 18.8359L19.6694 28.0415H38.0805L28.875 18.8359Z" fill="#0F0717" />
    <path d="M28.875 18.8348L38.0805 9.62927H19.6694L28.875 18.8348Z" fill="#0F0718" />
    <path d="M10.4648 18.8348L1.25928 9.62927V28.0404L10.4648 18.8348Z" fill="#F14C8F" />
    <path d="M19.6732 9.63059L28.8787 0.425049H10.4677L19.6732 9.63059Z" fill="#5E0150" />
    <path d="M28.875 37.2466L38.0805 28.041H19.6694L28.875 37.2466Z" fill="#2E0970" />
    <path d="M10.4648 37.2466L19.6704 28.041H1.25928L10.4648 37.2466Z" fill="#C30035" />
    <path d="M28.875 0.425049L19.6694 9.63059H38.0805L28.875 0.425049Z" fill="#2E0970" />
    <path d="M1.25928 9.63059H19.6704L10.4648 0.425049L1.25928 9.63059Z" fill="#C30035" />
    <path d="M19.6732 28.041L10.4677 37.2466H28.8787L19.6732 28.041Z" fill="#5E0150" />
    <path d="M10.4648 18.8359L1.25928 28.0415H19.6704L10.4648 18.8359Z" fill="#D7186A" />
    <path d="M19.6704 9.62927H1.25928L10.4648 18.8348L19.6704 9.62927Z" fill="#D7186A" />
    <path
      d="M48.7532 22.2058C49.2596 22.2058 49.637 22.0677 49.8856 21.7916C50.1249 21.5154 50.2538 21.1104 50.2538 20.5764H53.6967L53.7242 20.6408C53.7581 21.2472 53.6519 21.8531 53.414 22.4118C53.1762 22.9705 52.8131 23.467 52.3527 23.8627C51.3532 24.711 50.0724 25.1543 48.7625 25.1056C46.9214 25.1056 45.5129 24.5348 44.528 23.3933C43.495 22.1551 42.9601 20.5766 43.0274 18.9654V18.7076C43.0274 16.9034 43.5245 15.4305 44.5187 14.2891C45.5038 13.1476 46.9121 12.5768 48.7257 12.5768C50.2538 12.5768 51.4781 13.0003 52.3895 13.8564C52.8545 14.3062 53.2151 14.8526 53.4457 15.4571C53.6764 16.0616 53.7714 16.7092 53.7242 17.3545L53.6967 17.4189H50.2538C50.2747 16.9206 50.1395 16.4282 49.8672 16.0105C49.6186 15.6514 49.2319 15.4766 48.7257 15.4766C48.0077 15.4766 47.5106 15.7712 47.2251 16.351C46.9073 17.0947 46.7594 17.8998 46.7925 18.7076V18.9654C46.7925 19.978 46.9305 20.7697 47.2251 21.3404C47.5013 21.9112 48.0168 22.2058 48.7532 22.2058ZM62.0921 16.121L60.7113 16.1117C60.2879 16.1117 59.9288 16.1853 59.6526 16.3235C59.3764 16.4708 59.1739 16.6733 59.045 16.9495V24.8662H55.2708V12.7978H58.8241L58.953 14.5652C59.1645 13.9985 59.5122 13.4927 59.9656 13.0923C60.3727 12.7513 60.8891 12.5683 61.4201 12.5768C61.7709 12.5756 62.1204 12.6189 62.4604 12.7057L62.0921 16.121ZM69.254 19.5454V19.6375H69.3277L71.3252 12.7978H75.3388L70.5335 26.6612C70.1653 27.5542 69.6775 28.2907 69.0975 28.8706C68.5083 29.4506 67.5694 29.7452 66.2899 29.7452C65.9676 29.7452 65.7007 29.7268 65.4889 29.6807C65.2864 29.6438 64.955 29.5702 64.5131 29.4597L64.9734 26.7717L65.2036 26.8269L65.3969 26.8453C65.9953 26.8453 66.4279 26.7533 66.704 26.5785C66.9802 26.4035 67.1827 26.1366 67.3209 25.7868L67.6246 25.0042L63.4453 12.7978H67.4498L69.254 19.5454ZM83.7527 18.8549C83.7527 17.8423 83.5963 17.0138 83.2924 16.3971C82.9978 15.7803 82.5284 15.4766 81.8748 15.4766C81.4422 15.4766 81.0831 15.5502 80.7978 15.7066C80.5032 15.8632 80.2639 16.0933 80.0982 16.3878V21.4325C80.2823 21.6902 80.5124 21.8928 80.8069 22.0125C81.1529 22.1462 81.5225 22.2088 81.8932 22.1966C82.556 22.1966 83.0255 21.9205 83.3108 21.3773C83.6383 20.6595 83.7867 19.873 83.7436 19.0851V18.8549H83.7527ZM87.5086 19.0851C87.5086 20.9078 87.0944 22.3623 86.275 23.4577C85.8793 23.995 85.3573 24.4263 84.7553 24.7138C84.1532 25.0011 83.4895 25.1358 82.823 25.1056C82.2975 25.12 81.7762 25.0091 81.3024 24.7817C80.8284 24.5544 80.4156 24.2173 80.0982 23.7984V29.5058H76.3239V12.7978H79.8496L79.9877 14.1234C80.2757 13.6391 80.6878 13.2405 81.1813 12.9686C81.6749 12.6967 82.2321 12.5615 82.7953 12.5768C84.2959 12.5768 85.4465 13.1476 86.275 14.2983C87.1523 15.651 87.5837 17.2445 87.5086 18.8549V19.0851ZM93.6303 9.79675V12.7978H95.674V15.4029H93.6303V20.9447C93.6303 21.3681 93.7224 21.6811 93.8881 21.8652C93.9781 21.9624 94.088 22.039 94.2102 22.09C94.3326 22.1408 94.4644 22.1647 94.5968 22.1598C94.9678 22.1599 95.3378 22.123 95.7015 22.0493L95.9593 24.8385C95.2025 25.0206 94.427 25.1132 93.6487 25.1147C92.4059 25.1056 91.4669 24.7742 90.8318 24.1021C90.1875 23.4486 89.8652 22.3991 89.8652 20.9722V15.4029H88.1714V12.7978H89.8652V9.79675H93.6303ZM100.378 18.9563C100.378 19.9689 100.534 20.7606 100.857 21.3404C101.17 21.9112 101.704 22.1966 102.468 22.1966C103.204 22.1966 103.729 21.9112 104.051 21.3313C104.373 20.7513 104.53 19.9505 104.53 18.9563V18.7169C104.565 17.904 104.401 17.0948 104.051 16.3603C103.729 15.7712 103.195 15.4766 102.44 15.4766C101.704 15.4766 101.17 15.7712 100.857 16.3694C100.534 16.9586 100.378 17.7503 100.378 18.7169V18.9563ZM96.6036 18.7169C96.5354 17.0978 97.0887 15.5137 98.1502 14.2891C99.1721 13.1476 100.608 12.5676 102.449 12.5676C104.29 12.5676 105.726 13.1476 106.748 14.2891C107.807 15.515 108.36 17.0981 108.295 18.7169V18.9563C108.295 20.779 107.779 22.261 106.748 23.3933C105.726 24.5348 104.299 25.1056 102.468 25.1056C100.617 25.1056 99.1721 24.5348 98.141 23.3933C97.0856 22.1626 96.539 20.5759 96.6129 18.9563V18.7169H96.6036ZM113.422 12.7978L113.57 14.4916C113.965 13.8932 114.453 13.4145 115.033 13.0831C115.62 12.7437 116.288 12.5688 116.966 12.5768C118.154 12.5768 119.084 12.9543 119.746 13.7183C120.409 14.4916 120.741 15.7066 120.741 17.382V24.8662H116.966V17.3729C116.966 16.6824 116.828 16.1853 116.543 15.9C116.258 15.6239 115.834 15.4766 115.272 15.4766C114.964 15.4669 114.658 15.5264 114.376 15.6507C114.094 15.775 113.844 15.9607 113.643 16.1946V24.8662H109.896V12.7978H113.431H113.422ZM128.041 15.4766C127.497 15.4766 127.092 15.6607 126.816 16.0564C126.54 16.4431 126.384 16.9586 126.319 17.603L126.356 17.6582H129.606V17.3729C129.606 16.7561 129.477 16.2958 129.228 15.9644C128.97 15.633 128.584 15.4766 128.041 15.4766ZM128.317 25.1056C126.531 25.1056 125.113 24.5532 124.055 23.4302C123.525 22.87 123.113 22.2108 122.839 21.4902C122.566 20.7698 122.438 20.0026 122.462 19.2324V18.809C122.462 16.9679 122.941 15.4673 123.907 14.3075C124.874 13.1476 126.245 12.5584 128.041 12.5768C129.679 12.5768 130.959 13.0647 131.889 14.0497C132.859 15.1436 133.362 16.5751 133.288 18.0357V20.0148H126.384L126.365 20.0793C126.457 20.696 126.697 21.2116 127.129 21.6075C127.553 22.0032 128.114 22.2058 128.823 22.2058C129.979 22.232 131.124 21.9727 132.155 21.4509L133.048 23.7523C132.426 24.186 131.735 24.5129 131.005 24.7189C130.167 24.9767 129.265 25.1056 128.308 25.1056M145.246 19.7939H145.31L146.617 12.7978H150.097L147.262 24.8662H144.077L142.107 18.4683H142.042L140.072 24.8662H136.887L134.043 12.7978H137.522L138.848 19.8491H138.921L140.882 12.7978H143.257L145.246 19.7939ZM157.738 21.4786C157.738 21.184 157.571 20.917 157.231 20.6776C156.66 20.3607 156.037 20.1487 155.39 20.0517C154.241 19.8837 153.148 19.4417 152.206 18.7629C151.854 18.4777 151.575 18.1144 151.39 17.7021C151.204 17.2897 151.117 16.8396 151.138 16.3878C151.136 15.8645 151.257 15.3481 151.488 14.8788C151.72 14.4095 152.057 13.9997 152.472 13.6815C153.365 12.945 154.58 12.5768 156.099 12.5768C157.71 12.5768 158.99 12.9358 159.938 13.6539C160.383 13.9619 160.744 14.3793 160.981 14.8661C161.22 15.3529 161.33 15.8927 161.301 16.4339L161.282 16.4983H157.619C157.619 16.0289 157.498 15.6698 157.25 15.4213C157.01 15.1727 156.624 15.0531 156.09 15.0531C155.693 15.0531 155.362 15.1543 155.096 15.3752C154.967 15.473 154.866 15.6 154.798 15.7455C154.729 15.8909 154.696 16.0507 154.704 16.2112C154.71 16.3719 154.754 16.5287 154.833 16.6683C154.913 16.8079 155.025 16.9265 155.16 17.0138C155.739 17.329 156.374 17.5321 157.029 17.6123C158.209 17.783 159.332 18.231 160.307 18.9194C160.662 19.217 160.941 19.5933 161.125 20.0184C161.31 20.4436 161.391 20.9058 161.364 21.3681C161.364 22.4544 160.885 23.3472 159.919 24.0469C158.792 24.7995 157.454 25.1705 156.099 25.1056C154.461 25.1056 153.153 24.6821 152.206 23.8536C151.248 23.0251 150.787 22.0862 150.833 21.0643L150.861 20.9999H154.268C154.285 21.5706 154.452 21.9848 154.792 22.2334C155.123 22.4912 155.593 22.6108 156.2 22.6108C156.707 22.6108 157.093 22.5187 157.35 22.3162C157.608 22.123 157.738 21.8375 157.738 21.4786Z"
      fill="white" />
  </g>
  <defs>
    <clipPath id="clip0_1874_9348">
      <rect width="162.018" height="36.8222" fill="white" transform="translate(0.552979 0.424927)" />
    </clipPath>
  </defs>
</svg>
