<svg xmlns="http://www.w3.org/2000/svg" width="164" height="38" viewBox="0 0 164 38" fill="none">
  <mask id="mask0_1874_9408" style="mask-type:luminance" maskUnits="userSpaceOnUse" x="0" y="0"
    width="164" height="38">
    <path d="M163.727 0.424927H0.272583V37.2471H163.727V0.424927Z" fill="white" />
  </mask>
  <g mask="url(#mask0_1874_9408)">
    <path
      d="M26.4545 9.92803H25.6629L24.3742 8.09631C22.1974 5.02653 20.5635 4.03711 16.1593 4.03711H15.5657C13.3889 4.03711 11.9022 4.28574 10.7149 4.52929V18.4879L14.0334 18.3915C19.2291 18.2443 20.1678 17.4527 20.6143 14.5302L20.8122 13.1957H21.7052C21.7052 14.2358 21.6088 17.3513 21.6088 19.1831C21.6088 21.0655 21.7052 24.1302 21.7052 25.1704H20.8122L20.6651 24.2317C20.1678 21.1619 19.3762 20.2232 14.0334 20.076L10.7149 19.9745V28.1387C10.7149 34.3239 11.2578 35.0647 14.4291 35.6127L16.21 35.907V36.6478C15.2713 36.6478 9.77621 36.5513 7.94449 36.5513C6.11277 36.5513 1.31276 36.6528 0.272583 36.6528V35.912L2.00282 35.6178C4.4282 35.222 4.87471 33.9839 4.87471 28.1437V11.2118C4.87471 5.37158 4.4282 4.13352 2.00282 3.73774L0.272583 3.44344V2.70264C1.31276 2.70264 7.84301 2.80413 9.67473 2.80413C11.5064 2.80413 19.9192 2.75338 20.9085 2.75338H24.9678L26.4545 9.92803Z"
      fill="white" />
    <path
      d="M39.6174 36.6527C38.43 36.6527 35.7053 36.602 33.5793 36.602C31.4026 36.602 28.4799 36.6527 27.3433 36.6527V35.912L28.282 35.7648C30.3116 35.4654 30.7074 34.7247 30.7074 29.9753V19.6752C30.7074 17.1026 30.3116 16.3567 28.5306 15.5651L27.2927 15.0223V14.4286L35.5582 12.6476L36.2026 13.0433V29.9703C36.2026 34.7195 36.5983 35.4148 38.6786 35.7598L39.6174 35.9069V36.6527ZM32.9857 8.58842C31.0068 8.58842 29.5201 7.20321 29.5201 5.32076C29.5201 3.48904 31.0068 2.0531 32.9857 2.0531C35.0152 2.0531 36.502 3.48904 36.502 5.32076C36.4969 7.20321 35.0152 8.58842 32.9857 8.58842Z"
      fill="white" />
    <path
      d="M68.1267 36.6533C67.0357 36.6533 64.2145 36.6025 62.0886 36.6025C60.0082 36.6025 57.1871 36.6533 55.9997 36.6533V35.9124L56.7913 35.7653C58.9173 35.3696 59.3131 34.7252 59.3131 30.3717V21.0152C59.3131 17.4025 57.7299 15.6215 54.9595 15.6215C53.0314 15.6215 51.3976 16.3623 49.9616 17.4532V30.3717C49.9616 34.7252 50.3067 35.3696 52.4834 35.7653L53.275 35.9124V36.6533C52.0877 36.6533 49.3173 36.6025 47.1862 36.6025C45.0551 36.6025 42.2391 36.6533 41.0973 36.6533V35.9124L42.036 35.7653C44.0149 35.4659 44.4107 34.7252 44.4107 29.9759V19.625C44.4107 17.0524 43.9642 16.3573 42.2339 15.5149L41.0466 14.9213V14.3783L49.3122 12.5466L49.9566 12.9931V16.3116C52.5799 14.0841 55.0052 12.5974 58.075 12.5974C62.4793 12.5974 64.8538 14.9721 64.8538 19.9699V29.9658C64.8538 34.8165 65.2497 35.4101 67.2793 35.7553L68.1215 35.9024V36.6533H68.1267Z"
      fill="white" />
    <path
      d="M81.285 36.8512C78.4132 36.8512 75.8914 36.1561 74.1561 35.4154L72.1772 37.2471H71.5835V7.50318C71.5835 4.93065 71.137 4.18984 69.4576 3.39323L68.2195 2.79956V2.25665L76.48 0.424927L77.1243 0.871437V15.9666C79.2504 13.9371 81.1329 12.6026 84.4005 12.6026C90.1392 12.6026 94.0005 17.2047 94.0005 23.4913C94.0005 31.8991 88.6069 36.8512 81.285 36.8512ZM81.1329 15.6673C79.4483 15.6673 78.4132 16.063 77.1243 17.0017V28.7785C77.1243 33.3806 79.2504 35.5575 82.4216 35.5575C86.283 35.5575 88.7083 32.4876 88.7083 26.6982C88.7083 20.0715 85.6385 15.6673 81.1329 15.6673Z"
      fill="white" />
    <path
      d="M109.191 37.1459C102.311 37.1459 97.2165 32.7924 97.2165 24.6232C97.2165 17.7429 102.164 12.4507 109.242 12.4507C116.071 12.4507 121.217 16.8042 121.217 24.9734C121.217 31.8537 116.219 37.1459 109.191 37.1459ZM108.547 13.6888C105.183 13.6888 103.249 16.2613 103.249 23.238C103.249 30.9099 105.726 35.9078 109.83 35.9078C113.245 35.9078 115.128 33.3354 115.128 26.3586C115.133 18.6866 112.707 13.6888 108.547 13.6888Z"
      fill="white" />
    <path
      d="M135.666 36.6534C134.529 36.6534 131.804 36.6026 129.678 36.6026C127.501 36.6026 124.579 36.6534 123.442 36.6534V35.9126L124.381 35.7654C126.36 35.466 126.755 34.7253 126.755 29.9759V7.50318C126.755 4.93065 126.309 4.18984 124.629 3.39323L123.391 2.79956V2.25665L131.657 0.424927L132.301 0.871437V29.9709C132.301 34.7201 132.696 35.466 134.727 35.7604L135.666 35.9075V36.6534Z"
      fill="white" />
    <path
      d="M163.726 36.6534C161.696 36.6534 157.394 36.6534 155.313 36.7549L154.866 33.6395C152.74 35.669 150.909 37.0035 147.641 37.0035C141.903 37.0035 137.99 32.4014 137.99 26.1146C137.99 17.702 143.384 12.7497 150.756 12.7497C152.34 12.7497 153.776 12.8968 154.866 13.1455V7.70106C154.866 5.12853 154.324 4.28625 152.492 3.39323L151.304 2.79956V2.25665L159.768 0.424927L160.412 0.871437V29.9709C160.412 34.8216 160.809 35.4154 162.888 35.7604L163.73 35.9075V36.6534H163.726ZM154.866 20.8174C154.866 16.2153 152.787 13.9877 149.62 13.9877C145.759 13.9877 143.334 17.1032 143.334 22.8977C143.334 29.5294 146.402 33.9337 150.904 33.9337C152.537 33.9337 153.624 33.538 154.861 32.5992V20.8174H154.866Z"
      fill="white" />
  </g>
</svg>
