<svg xmlns="http://www.w3.org/2000/svg" width="141" height="38" viewBox="0 0 141 38" fill="none">
  <g clip-path="url(#clip0_1874_9596)">
    <path fillRule="evenodd" clipRule="evenodd"
      d="M15.9091 36.4042V36.3747C17.6143 36.3237 19.8444 36.2982 22.5994 36.2982L23.2897 36.299C25.7875 36.3044 27.921 36.3393 29.69 36.404V34.3671C28.4153 34.2612 27.6716 34.1908 27.4593 34.1555C26.8396 34.032 26.4235 33.8997 26.211 33.7586C26.0693 33.6705 25.9543 33.5294 25.8658 33.3354C25.7419 33.0708 25.671 32.5242 25.6534 31.6954C25.5825 29.826 25.5471 28.2477 25.5471 26.9602V22.5162C25.5294 20.0471 25.5825 18.6363 25.7065 18.2836C25.9189 17.684 26.4323 17.0888 27.2467 16.498C28.0612 15.9072 29.088 15.6119 30.3273 15.6119C31.5666 15.6119 32.5581 15.9072 33.3017 16.498C34.0453 17.0888 34.5366 17.8692 34.7756 18.8391C35.0146 19.8091 35.1342 21.8372 35.1342 24.9233V27.0132L35.0014 31.3515C34.8066 34.032 34.6915 35.5575 34.6561 35.9278L35.1342 36.404C36.4265 36.2805 37.9491 36.2189 39.7018 36.2189C41.2244 36.2189 43.1897 36.2805 45.5975 36.404V34.3671C44.907 34.2966 44.4113 34.2524 44.1104 34.2348C43.2959 34.1819 42.7692 34.0541 42.5302 33.8512C42.2912 33.6484 42.1318 33.1943 42.0521 32.4889C41.9724 31.7835 41.9238 29.9406 41.906 26.9602L41.8796 24.2356C41.8796 23.9358 41.8884 23.68 41.906 23.4684C41.9415 22.9217 41.9592 21.6432 41.9592 19.6327C41.9592 17.8516 41.8265 16.5422 41.5608 15.7045C41.2953 14.8667 40.835 14.0643 40.1799 13.2972C39.5248 12.5301 38.7237 11.9348 37.7766 11.5116C36.8293 11.0883 35.4085 10.8767 33.5141 10.8767C32.806 10.8767 32.2527 10.9164 31.8544 10.9958C31.456 11.0751 30.9647 11.2294 30.3804 11.4587L25.5471 15.3208V11.0619L24.8301 10.7445C23.5553 11.3264 22.4134 11.7497 21.4042 12.0142C20.3951 12.2787 18.2794 12.6844 15.0572 13.2311V15.268C16.7214 15.3208 17.7218 15.4091 18.0582 15.5324C18.2705 15.6031 18.4255 15.7133 18.5229 15.8632C18.6202 16.0131 18.6954 16.6524 18.7486 17.781C18.8548 20.0207 18.908 21.9253 18.908 23.4948L18.9077 27.2842C18.9061 28.2286 18.8973 28.9231 18.8814 29.3675L18.7751 31.7218C18.7574 32.6565 18.6601 33.2914 18.4831 33.6265C18.359 33.8381 18.1732 33.988 17.9253 34.0761C17.5113 34.2273 16.8392 34.3196 15.9091 34.3529V34.3408C14.0677 34.2702 12.9081 34.1203 12.4301 33.8911C12.2176 33.7853 12.076 33.5736 12.0052 33.2563C11.8635 32.6918 11.7927 30.8754 11.7927 27.8068V18.8128C11.7927 16.3967 11.8989 13.8131 12.1114 11.062L11.474 10.7181C9.86292 11.3706 8.37574 11.8556 7.01249 12.1731C5.64925 12.4905 3.63093 12.7903 0.95755 13.0725V15.0829C3.01128 15.1006 4.21518 15.2239 4.56927 15.4533C4.72861 15.559 4.8437 15.7884 4.91451 16.1411C5.06419 16.8534 5.14357 19.6666 5.15265 24.581L5.15313 26.0156C5.14658 29.7689 5.05818 32.1119 4.88795 33.0445C4.81713 33.5031 4.6401 33.8161 4.35681 33.9836C4.07355 34.1512 2.94045 34.3056 0.95755 34.4465V36.4042C2.90505 36.3335 5.15351 36.2983 7.70298 36.2983C10.3289 36.2983 12.7804 36.3262 15.0572 36.3818V36.404C15.1729 36.3994 15.2916 36.395 15.4134 36.3908C15.5795 36.3951 15.7448 36.3996 15.9091 36.4042ZM15.0572 36.3818V34.3671C15.3619 34.3671 15.6458 34.3624 15.9091 34.3529V36.3747C15.7386 36.3798 15.5733 36.3851 15.4134 36.3908L15.0572 36.3818ZM61.0904 31.0076C60.0282 33.7059 59.2669 35.5753 58.8066 36.6158H54.1591C53.2562 34.1643 52.1763 31.3603 50.9192 28.2036L47.4137 19.3683C47.0951 18.5746 46.502 17.208 45.6344 15.268C45.3511 14.6508 45.0591 14.2451 44.758 14.0511C44.28 13.7691 43.501 13.6191 42.421 13.6015V11.5381C44.9351 11.591 47.396 11.6175 49.8039 11.6175C52.07 11.6175 54.3008 11.591 56.4962 11.5381V13.6279C55.4692 13.6279 54.5575 13.6984 53.7608 13.8395C53.5307 13.8924 53.358 13.985 53.2429 14.1173C53.1278 14.2496 53.0703 14.4038 53.0703 14.5802L53.1765 15.0564L54.2123 18.2573L56.3368 23.7859L57.3725 26.3783C57.9922 27.9656 58.3993 28.9795 58.5941 29.4204L60.3203 25.4525L61.9403 21.5109C63.0025 19.0244 63.7196 17.1638 64.0914 15.9293C64.2684 15.3122 64.3569 14.8624 64.3569 14.5802C64.3569 14.2981 64.2242 14.082 63.9586 13.9321C63.6931 13.7822 62.675 13.672 60.9046 13.6015V11.5381C62.7282 11.591 64.4366 11.6175 66.0299 11.6175C67.5525 11.6175 69.3673 11.591 71.4741 11.5381V13.6544C70.1463 13.8131 69.3629 13.9454 69.1239 14.0511C68.8848 14.157 68.668 14.3686 68.4732 14.6861C68.1014 15.2504 67.3313 16.8375 66.1628 19.4476L63.6665 25.0557L62.6042 27.3835C62.1439 28.4064 61.6393 29.6144 61.0904 31.0076ZM82.1078 37.33C83.5773 37.33 84.8875 37.1801 86.0382 36.8802C87.5785 36.457 89.0746 35.8045 90.5263 34.9227L91.6949 32.3303L91.0574 31.5897C89.6765 32.2775 88.5612 32.7315 87.7114 32.952C86.8614 33.1724 85.9321 33.2826 84.9229 33.2826C82.5858 33.2826 80.6206 32.4758 79.0272 30.8622C77.4339 29.2486 76.5663 27.0484 76.4247 24.2621H78.1774C78.4607 24.2621 78.7174 24.2532 78.9476 24.2356C79.1777 24.218 80.3816 24.2004 82.5593 24.1828C84.7369 24.1651 86.4897 24.1033 87.8175 23.9976C88.2424 23.98 89.0568 23.8565 90.2608 23.6273C91.1637 23.4509 91.8365 23.2922 92.279 23.1511C92.3145 22.6925 92.3321 22.2165 92.3321 21.7226C92.3321 19.5358 92.018 17.6752 91.3894 16.1409C90.7609 14.6068 89.6854 13.3458 88.1628 12.3582C86.6402 11.3706 84.6927 10.8768 82.3203 10.8768C82.2813 10.8768 82.2226 10.8755 82.1465 10.8738C81.3545 10.8561 78.6669 10.7961 76.4247 11.7235C74.124 12.675 72.3493 14.7978 71.9483 15.3357C71.2793 16.2329 70.6392 17.7697 70.4494 18.3366C69.8297 20.1531 69.5199 22.2165 69.5199 24.5266C69.5199 26.1138 69.6793 27.5775 69.9979 28.9178C70.3166 30.2582 70.8344 31.4397 71.5516 32.4626C72.2685 33.4855 73.1007 34.3496 74.0478 35.055C74.9951 35.7604 76.137 36.3159 77.4736 36.7215C78.8104 37.1272 80.3551 37.33 82.1078 37.33ZM76.2382 21.3788C77.2828 21.5375 79.0267 21.6169 81.4699 21.6169C83.028 21.6169 84.3292 21.5375 85.3738 21.3788C85.4446 18.5747 85.064 16.6084 84.2318 15.4797C83.382 14.3687 82.2843 13.8132 80.9388 13.8132C79.5579 13.8132 78.4159 14.3952 77.5129 15.5591C76.5924 16.7407 76.1675 18.6806 76.2382 21.3788ZM108.476 36.4043L112.247 36.3779C112.743 36.3779 113.628 36.3338 114.903 36.2456L115.089 36.034C115.142 34.0059 115.346 31.2989 115.7 27.9128H113.522C112.973 30.7345 112.601 32.3218 112.407 32.6745C112.336 32.8155 112.23 32.9125 112.088 32.9654C111.84 33.0712 110.61 33.2035 108.397 33.3623C107.405 33.4151 105.475 33.4416 102.607 33.4416L100.642 33.4151C101.014 32.8332 102.536 30.6507 105.21 26.868C107.883 23.0852 111.185 18.6013 115.115 13.4166V11.5384C110.442 11.6618 107.724 11.7236 106.963 11.7236L96.7913 11.6177L94.295 11.4855L93.8966 11.5119L93.6576 11.75C93.6754 12.4731 93.6842 12.9669 93.6842 13.2314L93.6839 13.2771C93.6788 13.7293 93.608 15.6451 93.4717 19.0246H95.5697C95.729 18.1781 95.8796 17.2699 96.0212 16.2999C96.1097 15.6474 96.2424 15.2287 96.4195 15.0434C96.5965 14.8582 97.0923 14.7392 97.9066 14.6863C99.2345 14.5805 100.97 14.5276 103.112 14.5276H106.219C102.235 20.2238 98.5528 25.3116 95.1714 29.791C93.1353 32.5069 91.8871 34.1205 91.4268 34.632V36.4043C91.9225 36.3691 93.5867 36.325 96.4195 36.272C99.0059 36.2237 100.589 36.1974 101.168 36.1934L101.306 36.1927C102.351 36.1927 103.466 36.2191 104.652 36.272C106.936 36.3602 108.211 36.4043 108.476 36.4043ZM136.904 36.3779L133.132 36.4043C132.868 36.4043 131.592 36.3602 129.308 36.272C128.122 36.2191 127.007 36.1927 125.962 36.1927L125.824 36.1934C125.245 36.1974 123.662 36.2237 121.076 36.272C118.243 36.325 116.579 36.3691 116.083 36.4043V34.632C116.544 34.1205 117.792 32.5069 119.828 29.791C123.209 25.3116 126.892 20.2238 130.875 14.5276H127.768C125.626 14.5276 123.891 14.5805 122.563 14.6863C121.749 14.7392 121.253 14.8582 121.076 15.0434C120.899 15.2287 120.766 15.6474 120.677 16.2999C120.536 17.2699 120.385 18.1781 120.226 19.0246H118.128C118.264 15.6451 118.335 13.7293 118.34 13.2771L118.341 13.2314C118.341 12.9669 118.332 12.4731 118.314 11.75L118.553 11.5119L118.951 11.4855L121.448 11.6177L131.619 11.7236C132.38 11.7236 135.098 11.6618 139.772 11.5384V13.4166C135.841 18.6013 132.539 23.0852 129.866 26.868C127.193 30.6507 125.67 32.8332 125.298 33.4151L127.264 33.4416C130.132 33.4416 132.062 33.4151 133.053 33.3623C135.266 33.2035 136.496 33.0712 136.745 32.9654C136.887 32.9125 136.992 32.8155 137.063 32.6745C137.257 32.3218 137.63 30.7345 138.178 27.9128H140.356C140.002 31.2989 139.798 34.0059 139.746 36.034L139.559 36.2456C138.285 36.3338 137.399 36.3779 136.904 36.3779Z"
      fill="white" />
    <path
      d="M8.23646 8.62954C9.36954 8.62954 10.33 8.23274 11.1179 7.43914C11.9057 6.64555 12.2996 5.68442 12.2996 4.55576C12.2996 3.44471 11.9057 2.4924 11.1179 1.69881C10.33 0.90522 9.36954 0.508423 8.23646 0.508423C7.10338 0.508423 6.1429 0.90522 5.35505 1.69881C4.5672 2.4924 4.17328 3.44471 4.17328 4.55576C4.17328 5.68442 4.57163 6.64555 5.36833 7.43914C6.16503 8.23274 7.12108 8.62954 8.23646 8.62954Z"
      fill="#F7AF00" />
  </g>
  <defs>
    <clipPath id="clip0_1874_9596">
      <rect width="139.398" height="36.8222" fill="white" transform="translate(0.958099 0.508057)" />
    </clipPath>
  </defs>
</svg>
